SplineFontDB: 3.0
FontName: OglavieUnicode
FullName: Oglavie Unicode
FamilyName: Oglavie Unicode
Weight: Normal
Copyright: Copyright 2019 Aleksandr Andreev (Slavonic Computing Initiative). Licensed under the SIL OFL. Based on Oglavie UCS Copyright (c) Vladislav V. Dorosh, Calmius Software, 2008. All rights reserved. Licensed as part of CSL TeX under the terms of the LaTeX Project Public License available from CTAN archives in macros/latex/base/lppl.txt. Converted to OpenType and Unicode by Aleksandr Andreev.
Version: 2008.001
ItalicAngle: 0
UnderlinePosition: -60
UnderlineWidth: 10
Ascent: 800
Descent: 200
InvalidEm: 0
LayerCount: 2
Layer: 0 0 "Back" 1
Layer: 1 0 "Fore" 0
UniqueID: 4777054
FSType: 0
OS2Version: 0
OS2_WeightWidthSlopeOnly: 0
OS2_UseTypoMetrics: 0
CreationTime: 1291789194
ModificationTime: 1555236425
PfmFamily: 17
TTFWeight: 400
TTFWidth: 5
LineGap: 90
VLineGap: 0
OS2TypoAscent: 0
OS2TypoAOffset: 1
OS2TypoDescent: 0
OS2TypoDOffset: 1
OS2TypoLinegap: 90
OS2WinAscent: 0
OS2WinAOffset: 1
OS2WinDescent: 0
OS2WinDOffset: 1
HheadAscent: 0
HheadAOffset: 1
HheadDescent: 0
HheadDOffset: 1
OS2Vendor: 'PfEd'
MarkAttachClasses: 1
DEI: 91125

StartChar: .notdef
Encoding: 1114112 -1 0
Width: 360
LayerCount: 2
Fore
SplineSet
310 0 m 1
 50 0 l 1
 50 800 l 1
 310 800 l 1
 310 0 l 1
190 401 m 1
 290 40 l 1
 290 762 l 1
 190 401 l 1
169 401 m 1
 70 762 l 1
 70 40 l 1
 169 401 l 1
180 362 m 1
 86 20 l 1
 274 20 l 1
 180 362 l 1
86 780 m 1
 180 440 l 1
 273 780 l 1
 86 780 l 1
EndSplineSet
EndChar

StartChar: exclam
Encoding: 33 33 2
Width: 192
Flags: W
LayerCount: 2
Fore
SplineSet
160 63 m 0
 160 20 131 -15 96 -15 c 0
 61 -15 32 20 32 63 c 0
 32 106 61 141 96 141 c 0
 131 141 160 106 160 63 c 0
22 800 m 1
 160 800 l 1
 160 786 l 1
 100 196 l 1
 82 196 l 1
 22 786 l 1
 22 800 l 1
EndSplineSet
EndChar

StartChar: quotedbl
Encoding: 34 34 3
Width: 262
Flags: W
LayerCount: 2
Fore
SplineSet
242 793 m 1
 176 576 l 1
 120 576 l 1
 120 583 l 1
 170 800 l 1
 242 800 l 1
 242 793 l 1
142 793 m 1
 76 576 l 1
 20 576 l 1
 20 583 l 1
 70 800 l 1
 142 800 l 1
 142 793 l 1
EndSplineSet
EndChar

StartChar: uniE000
Encoding: 57344 57344 4
Width: 1
Flags: W
LayerCount: 2
Fore
SplineSet
-147 863 m 1
 -136 875 -134 890 -134 908 c 0
 -134 933 -151 956 -176 956 c 0
 -202 956 -221 936 -221 911 c 0
 -221 890 -212 870 -207 861 c 1
 -222 852 l 1
 -243 866 -263 896 -263 933 c 0
 -263 974 -231 1018 -179 1018 c 0
 -118 1018 -92 976 -92 932 c 0
 -92 894 -112 872 -134 854 c 1
 -147 863 l 1
EndSplineSet
EndChar

StartChar: uniE002
Encoding: 57346 57346 5
Width: 1
GlyphClass: 4
Flags: W
LayerCount: 2
Fore
SplineSet
-190 866 m 1
 -180 877 -180 899 -180 916 c 0
 -180 938 -194 961 -218 961 c 0
 -241 961 -255 937 -255 915 c 0
 -255 896 -247 872 -242 864 c 1
 -256 856 l 1
 -275 869 -293 901 -293 934 c 0
 -293 971 -267 1016 -221 1016 c 0
 -166 1016 -144 973 -144 934 c 0
 -144 899 -159 875 -177 858 c 1
 -190 866 l 1
-88 858 m 1
 -124 858 l 1
 -124 865 l 1
 -92 1040 l 1
 -50 1040 l 1
 -50 1033 l 1
 -88 858 l 1
EndSplineSet
EndChar

StartChar: uniE004
Encoding: 57348 57348 6
Width: 1
GlyphClass: 4
Flags: W
LayerCount: 2
Fore
SplineSet
-69 858 m 1
 -105 858 l 1
 -163 1033 l 1
 -163 1040 l 1
 -121 1040 l 1
 -69 865 l 1
 -69 858 l 1
-161 934 m 0
 -161 899 -176 875 -194 858 c 1
 -207 866 l 1
 -197 877 -197 899 -197 916 c 0
 -197 938 -211 961 -235 961 c 0
 -258 961 -272 937 -272 915 c 0
 -272 896 -264 872 -259 864 c 1
 -273 856 l 1
 -292 869 -310 901 -310 934 c 0
 -310 971 -284 1016 -238 1016 c 0
 -183 1016 -161 973 -161 934 c 0
EndSplineSet
EndChar

StartChar: quotesingle
Encoding: 39 39 7
Width: 162
Flags: W
LayerCount: 2
Fore
SplineSet
142 793 m 1
 76 576 l 1
 20 576 l 1
 20 583 l 1
 70 800 l 1
 142 800 l 1
 142 793 l 1
EndSplineSet
EndChar

StartChar: parenleft
Encoding: 40 40 8
Width: 200
Flags: W
LayerCount: 2
Fore
SplineSet
50 780 m 2
 50 835 95 880 150 880 c 2
 220 880 l 1
 220 860 l 1
 180 860 l 2
 154 860 150 836 150 810 c 2
 150 -10 l 2
 150 -36 154 -60 180 -60 c 2
 220 -60 l 1
 220 -80 l 1
 150 -80 l 2
 95 -80 50 -35 50 20 c 2
 50 780 l 2
EndSplineSet
EndChar

StartChar: parenright
Encoding: 41 41 9
Width: 200
Flags: W
LayerCount: 2
Fore
SplineSet
150 20 m 2
 150 -35 105 -80 50 -80 c 2
 -20 -80 l 1
 -20 -60 l 1
 20 -60 l 2
 46 -60 50 -36 50 -10 c 2
 50 810 l 2
 50 836 46 860 20 860 c 2
 -20 860 l 1
 -20 880 l 1
 50 880 l 2
 105 880 150 835 150 780 c 2
 150 20 l 2
EndSplineSet
EndChar

StartChar: asterisk
Encoding: 42 42 10
Width: 387
Flags: W
LayerCount: 2
Fore
SplineSet
376 629 m 1
 280 595 l 1
 326 502 l 1
 233 547 l 1
 198 451 l 1
 164 547 l 1
 73 502 l 1
 117 595 l 1
 21 629 l 1
 115 663 l 1
 71 755 l 1
 164 710 l 1
 198 806 l 1
 233 710 l 1
 326 755 l 1
 280 663 l 1
 376 629 l 1
329 629 m 1
 258 654 l 1
 292 722 l 1
 223 690 l 1
 198 759 l 1
 173 689 l 1
 105 721 l 1
 137 654 l 1
 68 629 l 1
 138 603 l 1
 105 535 l 1
 173 568 l 1
 198 498 l 1
 223 568 l 1
 292 535 l 1
 258 603 l 1
 329 629 l 1
EndSplineSet
EndChar

StartChar: uni2DE1
Encoding: 11745 11745 11
Width: 1
GlyphClass: 4
Flags: W
LayerCount: 2
Fore
SplineSet
-150 848 m 2
 -286 848 l 2
 -294 848 -295 862 -286 862 c 2
 -281 862 l 1
 -279 872 -277 892 -276 906 c 0
 -275 924 -275 945 -275 956 c 1
 -284 956 l 2
 -292 956 -293 970 -284 970 c 2
 -170 970 l 2
 -163 970 -163 956 -170 956 c 2
 -179 956 l 1
 -178 945 -178 922 -175 902 c 0
 -173 888 -168 870 -166 862 c 1
 -150 862 l 2
 -145 862 -144 848 -150 848 c 2
-213 862 m 1
 -215 870 -217 887 -217 899 c 0
 -217 920 -218 945 -218 956 c 1
 -233 956 l 1
 -233 945 -233 923 -234 904 c 0
 -234 890 -235 871 -235 862 c 1
 -213 862 l 1
-357 907 m 1
 -359 911 -363 920 -363 929 c 0
 -363 942 -355 966 -346 981 c 0
 -340 991 -335 996 -325 1001 c 0
 -273 1026 -234 1038 -188 1048 c 0
 -181 1049 -172 1049 -167 1045 c 0
 -114 1004 -6 927 26 906 c 0
 29 900 29 894 28 888 c 1
 -43 888 l 1
 -85 912 -154 971 -203 1003 c 0
 -215 1007 -231 1008 -248 1008 c 0
 -265 1008 -287 999 -296 988 c 0
 -300 979 -300 970 -300 960 c 0
 -300 944 -294 931 -294 920 c 2
 -294 914 l 1
 -357 907 l 1
EndSplineSet
EndChar

StartChar: comma
Encoding: 44 44 12
Width: 224
Flags: W
LayerCount: 2
Fore
SplineSet
20 -9 m 1
 111 128 l 1
 141 111 192 51 192 -28 c 0
 192 -100 145 -161 105 -191 c 1
 95 -182 l 1
 120 -154 140 -125 140 -87 c 0
 140 -34 96 10 69 29 c 1
 36 -21 l 1
 20 -9 l 1
EndSplineSet
EndChar

StartChar: hyphen
Encoding: 45 45 13
Width: 235
Flags: W
LayerCount: 2
Fore
SplineSet
200 380 m 1
 35 380 l 1
 35 420 l 1
 200 420 l 1
 200 380 l 1
EndSplineSet
EndChar

StartChar: period
Encoding: 46 46 14
Width: 228
Flags: W
LayerCount: 2
Fore
SplineSet
114 141 m 0
 149 141 178 106 178 63 c 0
 178 20 149 -15 114 -15 c 0
 79 -15 50 20 50 63 c 0
 50 106 79 141 114 141 c 0
EndSplineSet
EndChar

StartChar: slash
Encoding: 47 47 15
Width: 266
Flags: W
LayerCount: 2
Fore
SplineSet
239 850 m 1
 76 -50 l 1
 27 -50 l 1
 190 850 l 1
 239 850 l 1
EndSplineSet
EndChar

StartChar: acutecomb
Encoding: 769 769 16
Width: 1
Flags: W
LayerCount: 2
Fore
SplineSet
-165 858 m 5
 -201 858 l 5
 -201 865 l 5
 -161 1040 l 5
 -119 1040 l 5
 -119 1033 l 5
 -165 858 l 5
EndSplineSet
EndChar

StartChar: gravecomb
Encoding: 768 768 17
Width: 1
Flags: W
LayerCount: 2
Fore
SplineSet
-93 903 m 1
 -93 864 l 1
 -100 864 l 1
 -265 935 l 1
 -265 980 l 1
 -258 980 l 1
 -93 903 l 1
EndSplineSet
EndChar

StartChar: uni0311
Encoding: 785 785 18
Width: 1
Flags: W
LayerCount: 2
Fore
SplineSet
-181 945 m 0
 -219 945 -234 906 -234 869 c 2
 -234 858 l 1
 -272 858 l 1
 -272 868 l 2
 -272 928 -239 982 -181 982 c 0
 -123 982 -90 928 -90 868 c 2
 -90 858 l 1
 -128 858 l 1
 -128 869 l 2
 -128 906 -143 945 -181 945 c 0
EndSplineSet
EndChar

StartChar: uni033E
Encoding: 830 830 19
Width: 1
Flags: W
LayerCount: 2
Fore
SplineSet
-58 915 m 1
 -169 857 l 1
 -179 875 l 1
 -125 903 l 1
 -158 1015 l 1
 -51 1070 l 1
 -41 1052 l 1
 -90 1026 l 1
 -58 915 l 1
EndSplineSet
EndChar

StartChar: colon
Encoding: 58 58 20
Width: 208
Flags: W
LayerCount: 2
Fore
SplineSet
104 471 m 0
 139 471 168 436 168 393 c 0
 168 350 139 315 104 315 c 0
 69 315 40 350 40 393 c 0
 40 436 69 471 104 471 c 0
104 171 m 0
 139 171 168 136 168 93 c 0
 168 50 139 15 104 15 c 0
 69 15 40 50 40 93 c 0
 40 136 69 171 104 171 c 0
EndSplineSet
EndChar

StartChar: semicolon
Encoding: 59 59 21
Width: 224
Flags: W
LayerCount: 2
Fore
SplineSet
21 91 m 1
 112 228 l 1
 142 211 193 151 193 72 c 0
 193 0 146 -61 106 -91 c 1
 96 -82 l 1
 121 -54 141 -25 141 13 c 0
 141 65 97 110 70 129 c 1
 37 79 l 1
 21 91 l 1
108 501 m 0
 143 501 172 466 172 423 c 0
 172 380 143 345 108 345 c 0
 73 345 44 380 44 423 c 0
 44 466 73 501 108 501 c 0
EndSplineSet
EndChar

StartChar: uni2DEF
Encoding: 11759 11759 22
Width: 1
Flags: W
LayerCount: 2
Fore
SplineSet
-148 867 m 0
 -165 884 -179 898 -199 914 c 1
 -228 893 -256 869 -275 854 c 1
 -306 854 l 2
 -309 855 -309 861 -307 861 c 0
 -277 883 -250 903 -216 927 c 1
 -239 946 -270 972 -292 985 c 1
 -302 986 -326 989 -335 991 c 0
 -337 991 -340 989 -340 987 c 0
 -339 976 -339 968 -341 956 c 0
 -343 942 -345 932 -350 924 c 1
 -364 921 -384 918 -397 918 c 0
 -399 918 -399 921 -399 922 c 0
 -388 947 -380 980 -370 1005 c 0
 -369 1008 -364 1010 -359 1010 c 0
 -319 1008 -271 1010 -230 1012 c 0
 -227 1012 -224 1010 -222 1010 c 0
 -203 993 -186 979 -167 962 c 1
 -147 978 -128 993 -110 1005 c 0
 -88 1019 -60 1026 -25 1028 c 0
 -2 1028 15 1026 25 1022 c 0
 27 1020 30 1018 28 1016 c 0
 18 1007 5 1001 -1 989 c 0
 -8 977 -11 964 -12 951 c 0
 -12 949 -17 947 -19 949 c 0
 -33 959 -61 974 -78 979 c 0
 -80 980 -87 980 -90 979 c 0
 -106 972 -127 960 -150 945 c 1
 -120 916 -85 886 -51 858 c 0
 -49 857 -49 854 -52 854 c 2
 -123 854 l 2
 -135 856 -142 861 -148 867 c 0
EndSplineSet
EndChar

StartChar: uni2DE9
Encoding: 11753 11753 23
Width: 1
Flags: W
LayerCount: 2
Fore
SplineSet
-282 962 m 1
 -282 848 l 1
 -237 848 l 1
 -237 898 l 1
 -204 898 l 1
 -204 848 l 1
 -161 848 l 1
 -161 964 l 1
 -204 964 l 1
 -204 919 l 1
 -237 919 l 1
 -237 962 l 1
 -282 962 l 1
-357 907 m 1
 -359 911 -363 920 -363 929 c 0
 -363 942 -355 966 -346 981 c 0
 -340 991 -335 996 -325 1001 c 0
 -273 1026 -234 1038 -188 1048 c 0
 -181 1049 -172 1049 -167 1045 c 0
 -114 1004 -6 927 26 906 c 0
 29 900 29 894 28 888 c 1
 -43 888 l 1
 -85 912 -154 971 -203 1003 c 0
 -215 1007 -231 1008 -248 1008 c 0
 -265 1008 -287 999 -296 988 c 0
 -300 979 -300 970 -300 960 c 0
 -300 944 -294 931 -294 920 c 2
 -294 914 l 1
 -357 907 l 1
EndSplineSet
EndChar

StartChar: uni2DEC
Encoding: 11756 11756 24
Width: 1
Flags: W
LayerCount: 2
Fore
SplineSet
-335 845 m 1
 -333 852 -331 857 -331 871 c 2
 -331 927 l 2
 -331 947 -297 970 -264 970 c 0
 -232 970 -197 951 -197 928 c 0
 -197 907 -216 895 -251 895 c 0
 -259 895 -281 897 -287 902 c 1
 -287 862 l 2
 -287 850 -335 845 -335 845 c 1
-285 932 m 0
 -285 924 -277 911 -264 911 c 0
 -250 911 -240 920 -240 933 c 0
 -240 943 -249 955 -264 955 c 0
 -278 955 -285 942 -285 932 c 0
-411 907 m 1
 -413 911 -417 920 -417 929 c 0
 -417 942 -409 966 -400 981 c 0
 -394 991 -389 996 -379 1001 c 0
 -327 1026 -288 1038 -242 1048 c 0
 -235 1049 -226 1049 -221 1045 c 0
 -168 1004 -60 927 -28 906 c 0
 -25 900 -25 894 -26 888 c 1
 -97 888 l 1
 -139 912 -208 971 -257 1003 c 0
 -269 1007 -285 1008 -302 1008 c 0
 -319 1008 -341 999 -350 988 c 0
 -354 979 -354 970 -354 960 c 0
 -354 944 -348 931 -348 920 c 2
 -348 914 l 1
 -411 907 l 1
EndSplineSet
EndChar

StartChar: uni2DF1
Encoding: 11761 11761 25
Width: 1
Flags: W
LayerCount: 2
Fore
SplineSet
-284 962 m 1
 -284 926 -275 905 -250 901 c 0
 -233 898 -204 897 -204 897 c 1
 -204 848 l 1
 -161 848 l 1
 -161 964 l 1
 -204 964 l 1
 -204 918 l 1
 -204 918 -219 919 -228 927 c 0
 -237 935 -237 948 -237 962 c 1
 -284 962 l 1
-357 907 m 1
 -359 911 -363 920 -363 929 c 0
 -363 942 -355 966 -346 981 c 0
 -340 991 -335 996 -325 1001 c 0
 -273 1026 -234 1038 -188 1048 c 0
 -181 1049 -172 1049 -167 1045 c 0
 -114 1004 -6 927 26 906 c 0
 29 900 29 894 28 888 c 1
 -43 888 l 1
 -85 912 -154 971 -203 1003 c 0
 -215 1007 -231 1008 -248 1008 c 0
 -265 1008 -287 999 -296 988 c 0
 -300 979 -300 970 -300 960 c 0
 -300 944 -294 931 -294 920 c 2
 -294 914 l 1
 -357 907 l 1
EndSplineSet
EndChar

StartChar: uni2DED
Encoding: 11757 11757 26
Width: 1
Flags: W
LayerCount: 2
Fore
SplineSet
-220 873 m 1
 -207 872 -201 875 -190 882 c 0
 -186 884 -182 870 -183 868 c 0
 -189 858 -206 851 -219 849 c 0
 -230 847 -247 847 -256 847 c 0
 -260 847 -261 850 -261 854 c 0
 -261 859 -261 866 -261 873 c 0
 -261 891 -265 906 -265 925 c 0
 -265 955 -230 968 -208 970 c 0
 -202 971 -188 969 -186 967 c 0
 -185 963 -185 952 -186 946 c 1
 -214 950 -223 936 -223 913 c 0
 -223 898 -220 885 -220 873 c 1
-357 907 m 1
 -359 911 -363 920 -363 929 c 0
 -363 942 -355 966 -346 981 c 0
 -340 991 -335 996 -325 1001 c 0
 -273 1026 -234 1038 -188 1048 c 0
 -181 1049 -172 1049 -167 1045 c 0
 -114 1004 -6 927 26 906 c 0
 29 900 29 894 28 888 c 1
 -43 888 l 1
 -85 912 -154 971 -203 1003 c 0
 -215 1007 -231 1008 -248 1008 c 0
 -265 1008 -287 999 -296 988 c 0
 -300 979 -300 970 -300 960 c 0
 -300 944 -294 931 -294 920 c 2
 -294 914 l 1
 -357 907 l 1
EndSplineSet
EndChar

StartChar: bracketleft
Encoding: 91 91 27
Width: 200
Flags: W
LayerCount: 2
Fore
SplineSet
50 870 m 1
 220 870 l 1
 220 850 l 1
 150 850 l 1
 150 -50 l 1
 220 -50 l 1
 220 -70 l 1
 50 -70 l 1
 50 870 l 1
EndSplineSet
EndChar

StartChar: bracketright
Encoding: 93 93 28
Width: 200
Flags: W
LayerCount: 2
Fore
SplineSet
150 -70 m 1
 -20 -70 l 1
 -20 -50 l 1
 50 -50 l 1
 50 850 l 1
 -20 850 l 1
 -20 870 l 1
 150 870 l 1
 150 -70 l 1
EndSplineSet
EndChar

StartChar: grave
Encoding: 96 96 29
Width: 162
Flags: W
LayerCount: 2
Fore
SplineSet
142 576 m 1
 86 576 l 1
 20 793 l 1
 20 800 l 1
 92 800 l 1
 142 583 l 1
 142 576 l 1
EndSplineSet
EndChar

StartChar: uni2DEA
Encoding: 11754 11754 30
Width: 1
Flags: W
LayerCount: 2
Fore
SplineSet
-208 862 m 0
 -194 862 -184 874 -184 894 c 2
 -184 922 l 2
 -184 940 -194 954 -208 954 c 0
 -222 954 -232 940 -232 922 c 2
 -232 894 l 2
 -232 874 -222 862 -208 862 c 0
-208 970 m 0
 -170 970 -138 948 -138 908 c 0
 -138 868 -167 847 -208 847 c 0
 -249 847 -278 868 -278 908 c 0
 -278 948 -246 970 -208 970 c 0
-357 907 m 5
 -359 911 -363 920 -363 929 c 4
 -363 942 -355 966 -346 981 c 4
 -340 991 -335 996 -325 1001 c 4
 -273 1026 -234 1038 -188 1048 c 4
 -181 1049 -172 1049 -167 1045 c 4
 -114 1004 -6 927 26 906 c 4
 29 900 29 894 28 888 c 5
 -43 888 l 5
 -85 912 -154 971 -203 1003 c 4
 -215 1007 -231 1008 -248 1008 c 4
 -265 1008 -287 999 -296 988 c 4
 -300 979 -300 970 -300 960 c 4
 -300 944 -294 931 -294 920 c 6
 -294 914 l 5
 -357 907 l 5
EndSplineSet
EndChar

StartChar: uni2DE3
Encoding: 11747 11747 31
Width: 1
Flags: W
LayerCount: 2
Fore
SplineSet
34 897 m 1
 -31 831 l 1
 -41 831 l 1
 -41 889 l 1
 -325 889 l 1
 -325 831 l 1
 -335 831 l 1
 -400 897 l 1
 -400 909 l 1
 -269 909 l 1
 -198 1005 l 1
 -215 1026 l 1
 -232 1028 l 1
 -287 957 l 1
 -349 957 l 1
 -349 967 l 1
 -282 1054 l 1
 -154 1035 l 1
 -53 909 l 1
 34 909 l 1
 34 897 l 1
-185 989 m 1
 -245 909 l 1
 -121 909 l 1
 -185 989 l 1
EndSplineSet
EndChar

StartChar: uni2DE2
Encoding: 11746 11746 32
Width: 1
Flags: W
LayerCount: 2
Fore
SplineSet
-171 954 m 1
 -182 935 l 1
 -194 935 l 1
 -213 954 l 1
 -236 954 l 1
 -236 848 l 1
 -280 848 l 1
 -280 970 l 1
 -171 970 l 1
 -171 954 l 1
-357 907 m 1
 -359 911 -363 920 -363 929 c 0
 -363 942 -355 966 -346 981 c 0
 -340 991 -335 996 -325 1001 c 0
 -273 1026 -234 1038 -188 1048 c 0
 -181 1049 -172 1049 -167 1045 c 0
 -114 1004 -6 927 26 906 c 0
 29 900 29 894 28 888 c 1
 -43 888 l 1
 -85 912 -154 971 -203 1003 c 0
 -215 1007 -231 1008 -248 1008 c 0
 -265 1008 -287 999 -296 988 c 0
 -300 979 -300 970 -300 960 c 0
 -300 944 -294 931 -294 920 c 2
 -294 914 l 1
 -357 907 l 1
EndSplineSet
EndChar

StartChar: quotesinglbase
Encoding: 8218 8218 33
Width: 162
Flags: W
LayerCount: 2
Fore
SplineSet
142 217 m 1
 76 0 l 1
 20 0 l 1
 20 7 l 1
 70 224 l 1
 142 224 l 1
 142 217 l 1
EndSplineSet
EndChar

StartChar: afii10100
Encoding: 1107 1107 34
Width: 373
Flags: HW
LayerCount: 2
Fore
SplineSet
345 254 m 0
 345 163 268 87 175 87 c 0
 82 87 8 163 8 254 c 0
 8 349 82 424 175 424 c 0
 268 424 345 349 345 254 c 0
93 150 m 1
 116 131 145 120 175 120 c 0
 250 120 311 181 311 254 c 0
 311 287 300 314 282 338 c 1
 93 150 l 1
257 361 m 1
 236 379 207 390 175 390 c 0
 102 390 41 329 41 254 c 0
 41 224 52 197 68 173 c 1
 257 361 l 1
EndSplineSet
EndChar

StartChar: quotedblbase
Encoding: 8222 8222 35
Width: 262
Flags: W
LayerCount: 2
Fore
SplineSet
242 217 m 1
 176 0 l 1
 120 0 l 1
 120 7 l 1
 170 224 l 1
 242 224 l 1
 242 217 l 1
142 217 m 1
 76 0 l 1
 20 0 l 1
 20 7 l 1
 70 224 l 1
 142 224 l 1
 142 217 l 1
EndSplineSet
EndChar

StartChar: uni2DE5
Encoding: 11749 11749 36
Width: 1
Flags: W
LayerCount: 2
Fore
SplineSet
-293 1001 m 1
 -267 1016 -235 1028 -201 1028 c 0
 -183 1028 -153 1019 -149 1008 c 0
 -143 991 -138 977 -126 960 c 0
 -122 957 -115 954 -106 954 c 0
 -62 957 4 956 -10 902 c 0
 -17 876 -43 852 -99 850 c 0
 -128 849 -151 855 -168 867 c 0
 -182 877 -173 890 -151 880 c 0
 -144 877 -135 866 -124 866 c 0
 -76 864 -41 875 -43 906 c 0
 -44 923 -116 919 -157 918 c 0
 -162 918 -166 921 -168 923 c 0
 -187 944 -200 971 -205 1003 c 0
 -207 1005 -211 1007 -213 1007 c 0
 -236 1007 -258 997 -281 986 c 1
 -278 975 -285 955 -301 947 c 0
 -317 939 -330 942 -342 947 c 1
 -364 928 -373 915 -370 908 c 0
 -370 905 -368 901 -363 900 c 0
 -353 897 -350 898 -342 898 c 0
 -335 898 -330 882 -343 882 c 0
 -355 881 -372 882 -383 886 c 0
 -390 888 -396 900 -396 904 c 0
 -393 918 -377 943 -353 962 c 1
 -362 974 -352 996 -337 1005 c 0
 -321 1013 -305 1009 -293 1001 c 1
EndSplineSet
EndChar

StartChar: afii10061
Encoding: 1036 1036 37
Width: 360
Flags: HW
LayerCount: 2
Fore
SplineSet
186 858 m 1
 150 858 l 1
 150 865 l 1
 190 1040 l 1
 232 1040 l 1
 232 1033 l 1
 186 858 l 1
150 0 m 1
 50 0 l 1
 50 800 l 1
 150 800 l 1
 150 535 l 1
 160 548 173 559 186 569 c 0
 193 574 201 578 210 582 c 1
 210 800 l 1
 310 800 l 1
 310 590 l 1
 291 589 232 577 198 553 c 0
 176 538 154 517 154 495 c 0
 154 473 176 452 198 437 c 0
 232 413 291 401 310 400 c 1
 310 0 l 1
 210 0 l 1
 210 407 l 1
 201 411 193 416 186 421 c 0
 173 430 160 442 150 454 c 1
 150 0 l 1
EndSplineSet
EndChar

StartChar: afii10145
Encoding: 1039 1039 38
Width: 373
Flags: HW
LayerCount: 2
Fore
SplineSet
345 254 m 0
 345 163 268 87 175 87 c 0
 82 87 8 163 8 254 c 0
 8 349 82 424 175 424 c 0
 268 424 345 349 345 254 c 0
93 150 m 1
 116 131 145 120 175 120 c 0
 250 120 311 181 311 254 c 0
 311 287 300 314 282 338 c 1
 93 150 l 1
257 361 m 1
 236 379 207 390 175 390 c 0
 102 390 41 329 41 254 c 0
 41 224 52 197 68 173 c 1
 257 361 l 1
EndSplineSet
EndChar

StartChar: afii10099
Encoding: 1106 1106 39
Width: 373
Flags: HW
LayerCount: 2
Fore
SplineSet
345 254 m 0
 345 163 268 87 175 87 c 0
 82 87 8 163 8 254 c 0
 8 349 82 424 175 424 c 0
 268 424 345 349 345 254 c 0
93 150 m 1
 116 131 145 120 175 120 c 0
 250 120 311 181 311 254 c 0
 311 287 300 314 282 338 c 1
 93 150 l 1
257 361 m 1
 236 379 207 390 175 390 c 0
 102 390 41 329 41 254 c 0
 41 224 52 197 68 173 c 1
 257 361 l 1
EndSplineSet
EndChar

StartChar: quoteleft
Encoding: 8216 8216 40
Width: 162
Flags: W
LayerCount: 2
Fore
SplineSet
143 793 m 1
 93 576 l 1
 21 576 l 1
 21 583 l 1
 87 800 l 1
 143 800 l 1
 143 793 l 1
EndSplineSet
EndChar

StartChar: quoteright
Encoding: 8217 8217 41
Width: 162
Flags: W
LayerCount: 2
Fore
SplineSet
142 793 m 1
 76 576 l 1
 20 576 l 1
 20 583 l 1
 70 800 l 1
 142 800 l 1
 142 793 l 1
EndSplineSet
EndChar

StartChar: quotedblleft
Encoding: 8220 8220 42
Width: 262
Flags: W
LayerCount: 2
Fore
SplineSet
143 793 m 1
 93 576 l 1
 21 576 l 1
 21 583 l 1
 87 800 l 1
 143 800 l 1
 143 793 l 1
243 793 m 1
 193 576 l 1
 121 576 l 1
 121 583 l 1
 187 800 l 1
 243 800 l 1
 243 793 l 1
EndSplineSet
EndChar

StartChar: quotedblright
Encoding: 8221 8221 43
Width: 262
Flags: W
LayerCount: 2
Fore
SplineSet
242 793 m 1
 176 576 l 1
 120 576 l 1
 120 583 l 1
 170 800 l 1
 242 800 l 1
 242 793 l 1
142 793 m 1
 76 576 l 1
 20 576 l 1
 20 583 l 1
 70 800 l 1
 142 800 l 1
 142 793 l 1
EndSplineSet
EndChar

StartChar: uni2DE4
Encoding: 11748 11748 44
Width: 1
Flags: W
LayerCount: 2
Fore
SplineSet
-221 896 m 1
 -193 873 -162 854 -126 844 c 0
 -111 840 -89 845 -109 859 c 0
 -132 876 -161 896 -173 938 c 1
 -142 966 -82 1000 -52 961 c 0
 -33 937 20 963 20 980 c 0
 20 996 11 1011 -8 1018 c 0
 -51 1033 -102 1014 -130 999 c 1
 -141 1008 -140 1017 -142 1031 c 0
 -142 1034 -147 1036 -150 1033 c 0
 -176 1016 -199 1008 -226 1009 c 0
 -254 1011 -264 1031 -295 1032 c 1
 -315 1013 -326 994 -348 984 c 1
 -301 977 -272 938 -245 918 c 1
 -262 899 -284 882 -312 870 c 0
 -326 862 -315 847 -293 857 c 0
 -271 866 -242 880 -221 896 c 1
EndSplineSet
EndChar

StartChar: endash
Encoding: 8211 8211 45
Width: 315
Flags: W
LayerCount: 2
Fore
SplineSet
280 380 m 1
 35 380 l 1
 35 420 l 1
 280 420 l 1
 280 380 l 1
EndSplineSet
EndChar

StartChar: emdash
Encoding: 8212 8212 46
Width: 475
Flags: W
LayerCount: 2
Fore
SplineSet
440 380 m 1
 35 380 l 1
 35 420 l 1
 440 420 l 1
 440 380 l 1
EndSplineSet
EndChar

StartChar: afii10106
Encoding: 1113 1113 47
Width: 373
Flags: HW
LayerCount: 2
Fore
SplineSet
345 254 m 0
 345 163 268 87 175 87 c 0
 82 87 8 163 8 254 c 0
 8 349 82 424 175 424 c 0
 268 424 345 349 345 254 c 0
93 150 m 1
 116 131 145 120 175 120 c 0
 250 120 311 181 311 254 c 0
 311 287 300 314 282 338 c 1
 93 150 l 1
257 361 m 1
 236 379 207 390 175 390 c 0
 102 390 41 329 41 254 c 0
 41 224 52 197 68 173 c 1
 257 361 l 1
EndSplineSet
EndChar

StartChar: afii10107
Encoding: 1114 1114 48
Width: 373
Flags: HW
LayerCount: 2
Fore
SplineSet
345 254 m 0
 345 163 268 87 175 87 c 0
 82 87 8 163 8 254 c 0
 8 349 82 424 175 424 c 0
 268 424 345 349 345 254 c 0
93 150 m 1
 116 131 145 120 175 120 c 0
 250 120 311 181 311 254 c 0
 311 287 300 314 282 338 c 1
 93 150 l 1
257 361 m 1
 236 379 207 390 175 390 c 0
 102 390 41 329 41 254 c 0
 41 224 52 197 68 173 c 1
 257 361 l 1
EndSplineSet
EndChar

StartChar: afii10109
Encoding: 1116 1116 49
Width: 360
Flags: HW
LayerCount: 2
Fore
SplineSet
186 858 m 1
 150 858 l 1
 150 865 l 1
 190 1040 l 1
 232 1040 l 1
 232 1033 l 1
 186 858 l 1
150 0 m 1
 50 0 l 1
 50 800 l 1
 150 800 l 1
 150 535 l 1
 160 548 173 559 186 569 c 0
 193 574 201 578 210 582 c 1
 210 800 l 1
 310 800 l 1
 310 590 l 1
 291 589 232 577 198 553 c 0
 176 538 154 517 154 495 c 0
 154 473 176 452 198 437 c 0
 232 413 291 401 310 400 c 1
 310 0 l 1
 210 0 l 1
 210 407 l 1
 201 411 193 416 186 421 c 0
 173 430 160 442 150 454 c 1
 150 0 l 1
EndSplineSet
EndChar

StartChar: afii10108
Encoding: 1115 1115 50
Width: 373
Flags: HW
LayerCount: 2
Fore
SplineSet
345 254 m 0
 345 163 268 87 175 87 c 0
 82 87 8 163 8 254 c 0
 8 349 82 424 175 424 c 0
 268 424 345 349 345 254 c 0
93 150 m 1
 116 131 145 120 175 120 c 0
 250 120 311 181 311 254 c 0
 311 287 300 314 282 338 c 1
 93 150 l 1
257 361 m 1
 236 379 207 390 175 390 c 0
 102 390 41 329 41 254 c 0
 41 224 52 197 68 173 c 1
 257 361 l 1
EndSplineSet
EndChar

StartChar: afii10193
Encoding: 1119 1119 51
Width: 373
Flags: HW
LayerCount: 2
Fore
SplineSet
345 254 m 0
 345 163 268 87 175 87 c 0
 82 87 8 163 8 254 c 0
 8 349 82 424 175 424 c 0
 268 424 345 349 345 254 c 0
93 150 m 1
 116 131 145 120 175 120 c 0
 250 120 311 181 311 254 c 0
 311 287 300 314 282 338 c 1
 93 150 l 1
257 361 m 1
 236 379 207 390 175 390 c 0
 102 390 41 329 41 254 c 0
 41 224 52 197 68 173 c 1
 257 361 l 1
EndSplineSet
EndChar

StartChar: afii10062
Encoding: 1038 1038 53
Width: 350
Flags: HW
LayerCount: 2
Fore
SplineSet
245 960 m 1
 261 960 l 1
 262 956 258 932 254 920 c 0
 240 875 214 822 168 822 c 0
 136 822 115 862 115 898 c 0
 115 925 125 953 130 962 c 1
 146 962 l 1
 142 952 137 938 137 921 c 0
 137 900 157 882 177 882 c 0
 218 882 244 927 245 960 c 1
326 800 m 1
 319 784 312 769 308 749 c 0
 304 729 301 700 300 687 c 2
 300 678 l 1
 263 678 l 2
 242 678 220 669 217 621 c 2
 198 328 l 1
 196 94 l 2
 195 55 213 22 255 18 c 1
 255 0 l 1
 93 0 l 1
 93 18 l 1
 137 21 175 50 176 95 c 2
 177 291 l 1
 83 291 l 1
 27 800 l 1
 132 800 l 1
 179 368 l 1
 196 627 l 2
 204 754 227 808 280 808 c 2
 326 808 l 1
 326 800 l 1
EndSplineSet
EndChar

StartChar: afii10110
Encoding: 1118 1118 54
Width: 350
Flags: HW
LayerCount: 2
Fore
SplineSet
245 960 m 1
 261 960 l 1
 262 956 258 932 254 920 c 0
 240 875 214 822 168 822 c 0
 136 822 115 862 115 898 c 0
 115 925 125 953 130 962 c 1
 146 962 l 1
 142 952 137 938 137 921 c 0
 137 900 157 882 177 882 c 0
 218 882 244 927 245 960 c 1
326 800 m 1
 319 784 312 769 308 749 c 0
 304 729 301 700 300 687 c 2
 300 678 l 1
 263 678 l 2
 242 678 220 669 217 621 c 2
 198 328 l 1
 196 94 l 2
 195 55 213 22 255 18 c 1
 255 0 l 1
 93 0 l 1
 93 18 l 1
 137 21 175 50 176 95 c 2
 177 291 l 1
 83 291 l 1
 27 800 l 1
 132 800 l 1
 179 368 l 1
 196 627 l 2
 204 754 227 808 280 808 c 2
 326 808 l 1
 326 800 l 1
EndSplineSet
EndChar

StartChar: afii10050
Encoding: 1168 1168 55
Width: 373
Flags: HW
LayerCount: 2
Fore
SplineSet
345 254 m 0
 345 163 268 87 175 87 c 0
 82 87 8 163 8 254 c 0
 8 349 82 424 175 424 c 0
 268 424 345 349 345 254 c 0
93 150 m 1
 116 131 145 120 175 120 c 0
 250 120 311 181 311 254 c 0
 311 287 300 314 282 338 c 1
 93 150 l 1
257 361 m 1
 236 379 207 390 175 390 c 0
 102 390 41 329 41 254 c 0
 41 224 52 197 68 173 c 1
 257 361 l 1
EndSplineSet
EndChar

StartChar: afii10023
Encoding: 1025 1025 56
Width: 378
Flags: HW
LayerCount: 2
Fore
SplineSet
133 945 m 1
 170 862 l 1
 170 854 l 1
 127 854 l 1
 90 937 l 1
 90 945 l 1
 133 945 l 1
223 945 m 1
 260 862 l 1
 260 854 l 1
 217 854 l 1
 180 937 l 1
 180 945 l 1
 223 945 l 1
222 26 m 0
 202 7 176 -8 145 -8 c 0
 111 -8 80 11 67 42 c 0
 61 57 57 77 57 90 c 0
 57 112 69 135 98 135 c 0
 128 135 140 112 140 90 c 0
 140 65 121 48 98 48 c 0
 94 48 90 48 86 49 c 1
 91 38 99 29 110 22 c 1
 137 28 153 64 153 84 c 0
 153 128 126 176 110 228 c 0
 90 293 50 403 50 497 c 0
 50 626 92 808 192 808 c 0
 295 808 330 641 331 539 c 1
 221 539 l 1
 221 775 l 1
 215 785 205 790 191 790 c 0
 178 790 166 785 162 775 c 0
 160 762 157 689 157 644 c 0
 157 594 159 527 161 477 c 0
 161 466 162 455 163 444 c 1
 167 449 172 455 178 460 c 0
 193 473 221 482 245 482 c 0
 277 482 305 470 318 442 c 0
 328 421 331 399 331 371 c 1
 221 371 l 1
 221 430 l 2
 221 441 214 449 203 449 c 0
 198 449 193 448 189 446 c 0
 179 439 171 426 165 412 c 1
 170 320 181 243 181 161 c 0
 181 130 179 81 170 55 c 0
 163 33 148 20 135 12 c 1
 145 12 l 2
 169 12 188 24 197 34 c 0
 213 52 221 129 221 191 c 2
 221 312 l 1
 331 312 l 1
 331 230 317 116 222 26 c 0
EndSplineSet
EndChar

StartChar: afii10053
Encoding: 1028 1028 57
Width: 378
Flags: HW
LayerCount: 2
Fore
SplineSet
222 26 m 0
 202 7 176 -8 145 -8 c 0
 111 -8 80 11 67 42 c 0
 61 57 57 77 57 90 c 0
 57 112 69 135 98 135 c 0
 128 135 140 112 140 90 c 0
 140 65 121 48 98 48 c 0
 94 48 90 48 86 49 c 1
 91 38 99 29 110 22 c 1
 137 28 153 64 153 84 c 0
 153 128 126 176 110 228 c 0
 90 293 50 403 50 497 c 0
 50 626 92 808 192 808 c 0
 295 808 330 641 331 539 c 1
 221 539 l 1
 221 775 l 1
 215 785 205 790 191 790 c 0
 178 790 166 785 162 775 c 0
 160 762 157 689 157 644 c 0
 157 594 159 527 161 477 c 0
 161 466 162 455 163 444 c 1
 167 449 172 455 178 460 c 0
 193 473 221 482 245 482 c 0
 277 482 305 470 318 442 c 0
 328 421 331 399 331 371 c 1
 221 371 l 1
 221 430 l 2
 221 441 214 449 203 449 c 0
 198 449 193 448 189 446 c 0
 179 439 171 426 165 412 c 1
 170 320 181 243 181 161 c 0
 181 130 179 81 170 55 c 0
 163 33 148 20 135 12 c 1
 145 12 l 2
 169 12 188 24 197 34 c 0
 213 52 221 129 221 191 c 2
 221 312 l 1
 331 312 l 1
 331 230 317 116 222 26 c 0
EndSplineSet
EndChar

StartChar: guillemotleft
Encoding: 171 171 58
Width: 270
Flags: W
LayerCount: 2
Fore
SplineSet
145 147 m 1
 119 147 l 1
 28 398 l 1
 28 402 l 1
 119 649 l 1
 145 649 l 1
 101 400 l 1
 145 147 l 1
245 147 m 1
 219 147 l 1
 128 398 l 1
 128 402 l 1
 219 649 l 1
 245 649 l 1
 201 400 l 1
 245 147 l 1
EndSplineSet
EndChar

StartChar: logicalnot
Encoding: 172 172 59
Width: 235
Flags: W
LayerCount: 2
Fore
SplineSet
200 300 m 1
 160 300 l 1
 160 380 l 1
 35 380 l 1
 35 420 l 1
 200 420 l 1
 200 300 l 1
EndSplineSet
EndChar

StartChar: afii10056
Encoding: 1031 1031 60
Width: 200
Flags: HW
LayerCount: 2
Fore
SplineSet
150 0 m 1
 50 0 l 1
 50 800 l 1
 150 800 l 1
 150 0 l 1
66 945 m 5
 103 862 l 5
 103 854 l 5
 60 854 l 5
 23 937 l 5
 23 945 l 5
 66 945 l 5
156 945 m 5
 193 862 l 5
 193 854 l 5
 150 854 l 5
 113 937 l 5
 113 945 l 5
 156 945 l 5
EndSplineSet
EndChar

StartChar: uniA67E
Encoding: 42622 42622 61
Width: 234
GlyphClass: 4
Flags: W
LayerCount: 2
Fore
SplineSet
117 705 m 0
 59 705 20 727 20 775 c 2
 20 800 l 1
 85 800 l 1
 85 775 l 2
 85 747 90 725 117 725 c 0
 145 725 150 747 150 775 c 2
 150 800 l 1
 214 800 l 1
 214 775 l 2
 214 727 175 705 117 705 c 0
EndSplineSet
EndChar

StartChar: afii10055
Encoding: 1030 1030 62
Width: 200
Flags: HW
LayerCount: 2
Fore
SplineSet
150 0 m 1
 50 0 l 1
 50 800 l 1
 150 800 l 1
 150 0 l 1
EndSplineSet
EndChar

StartChar: afii10103
Encoding: 1110 1110 63
Width: 200
Flags: HW
LayerCount: 2
Fore
SplineSet
150 0 m 1
 50 0 l 1
 50 800 l 1
 150 800 l 1
 150 0 l 1
EndSplineSet
EndChar

StartChar: afii10098
Encoding: 1169 1169 64
Width: 373
Flags: HW
LayerCount: 2
Fore
SplineSet
345 254 m 0
 345 163 268 87 175 87 c 0
 82 87 8 163 8 254 c 0
 8 349 82 424 175 424 c 0
 268 424 345 349 345 254 c 0
93 150 m 1
 116 131 145 120 175 120 c 0
 250 120 311 181 311 254 c 0
 311 287 300 314 282 338 c 1
 93 150 l 1
257 361 m 1
 236 379 207 390 175 390 c 0
 102 390 41 329 41 254 c 0
 41 224 52 197 68 173 c 1
 257 361 l 1
EndSplineSet
EndChar

StartChar: paragraph
Encoding: 182 182 65
Width: 360
Flags: W
LayerCount: 2
Fore
SplineSet
150 0 m 1
 130 0 l 1
 130 290 l 1
 120 290 l 2
 69 290 40 319 40 374 c 2
 40 716 l 2
 40 771 69 800 120 800 c 2
 360 800 l 1
 360 780 l 1
 310 780 l 1
 310 0 l 1
 210 0 l 1
 210 780 l 1
 150 780 l 1
 150 0 l 1
EndSplineSet
EndChar

StartChar: periodcentered
Encoding: 183 183 66
Width: 159
Flags: W
LayerCount: 2
Fore
SplineSet
37 400 m 0
 37 425 57 445 81 445 c 0
 105 445 125 425 125 400 c 0
 125 375 105 355 81 355 c 0
 57 355 37 375 37 400 c 0
EndSplineSet
EndChar

StartChar: afii10071
Encoding: 1105 1105 67
Width: 378
Flags: HW
LayerCount: 2
Fore
SplineSet
133 945 m 1
 170 862 l 1
 170 854 l 1
 127 854 l 1
 90 937 l 1
 90 945 l 1
 133 945 l 1
223 945 m 1
 260 862 l 1
 260 854 l 1
 217 854 l 1
 180 937 l 1
 180 945 l 1
 223 945 l 1
222 26 m 0
 202 7 176 -8 145 -8 c 0
 111 -8 80 11 67 42 c 0
 61 57 57 77 57 90 c 0
 57 112 69 135 98 135 c 0
 128 135 140 112 140 90 c 0
 140 65 121 48 98 48 c 0
 94 48 90 48 86 49 c 1
 91 38 99 29 110 22 c 1
 137 28 153 64 153 84 c 0
 153 128 126 176 110 228 c 0
 90 293 50 403 50 497 c 0
 50 626 92 808 192 808 c 0
 295 808 330 641 331 539 c 1
 221 539 l 1
 221 775 l 1
 215 785 205 790 191 790 c 0
 178 790 166 785 162 775 c 0
 160 762 157 689 157 644 c 0
 157 594 159 527 161 477 c 0
 161 466 162 455 163 444 c 1
 167 449 172 455 178 460 c 0
 193 473 221 482 245 482 c 0
 277 482 305 470 318 442 c 0
 328 421 331 399 331 371 c 1
 221 371 l 1
 221 430 l 2
 221 441 214 449 203 449 c 0
 198 449 193 448 189 446 c 0
 179 439 171 426 165 412 c 1
 170 320 181 243 181 161 c 0
 181 130 179 81 170 55 c 0
 163 33 148 20 135 12 c 1
 145 12 l 2
 169 12 188 24 197 34 c 0
 213 52 221 129 221 191 c 2
 221 312 l 1
 331 312 l 1
 331 230 317 116 222 26 c 0
EndSplineSet
EndChar

StartChar: afii10101
Encoding: 1108 1108 68
Width: 378
Flags: W
LayerCount: 2
Fore
SplineSet
222 26 m 0
 202 7 176 -8 145 -8 c 0
 111 -8 80 11 67 42 c 0
 61 57 57 77 57 90 c 0
 57 112 69 135 98 135 c 0
 128 135 140 112 140 90 c 0
 140 65 121 48 98 48 c 0
 94 48 90 48 86 49 c 1
 91 38 99 29 110 22 c 1
 137 28 153 64 153 84 c 0
 153 128 126 176 110 228 c 0
 90 293 50 403 50 497 c 0
 50 626 92 808 192 808 c 0
 295 808 330 641 331 539 c 1
 221 539 l 1
 221 775 l 1
 215 785 205 790 191 790 c 0
 178 790 166 785 162 775 c 0
 160 762 157 689 157 644 c 0
 157 594 159 527 161 477 c 0
 161 466 162 455 163 444 c 1
 167 449 172 455 178 460 c 0
 193 473 221 482 245 482 c 0
 277 482 305 470 318 442 c 0
 328 421 331 399 331 371 c 1
 221 371 l 1
 221 430 l 2
 221 441 214 449 203 449 c 0
 198 449 193 448 189 446 c 0
 179 439 171 426 165 412 c 1
 170 320 181 243 181 161 c 0
 181 130 179 81 170 55 c 0
 163 33 148 20 135 12 c 1
 145 12 l 2
 169 12 188 24 197 34 c 0
 213 52 221 129 221 191 c 2
 221 312 l 1
 331 312 l 1
 331 230 317 116 222 26 c 0
EndSplineSet
EndChar

StartChar: guillemotright
Encoding: 187 187 69
Width: 270
Flags: W
LayerCount: 2
Fore
SplineSet
242 398 m 1
 151 147 l 1
 125 147 l 1
 169 400 l 1
 125 649 l 1
 151 649 l 1
 242 402 l 1
 242 398 l 1
142 398 m 1
 51 147 l 1
 25 147 l 1
 69 400 l 1
 25 649 l 1
 51 649 l 1
 142 402 l 1
 142 398 l 1
EndSplineSet
EndChar

StartChar: afii10105
Encoding: 1112 1112 70
Width: 373
Flags: HW
LayerCount: 2
Fore
SplineSet
345 254 m 0
 345 163 268 87 175 87 c 0
 82 87 8 163 8 254 c 0
 8 349 82 424 175 424 c 0
 268 424 345 349 345 254 c 0
93 150 m 1
 116 131 145 120 175 120 c 0
 250 120 311 181 311 254 c 0
 311 287 300 314 282 338 c 1
 93 150 l 1
257 361 m 1
 236 379 207 390 175 390 c 0
 102 390 41 329 41 254 c 0
 41 224 52 197 68 173 c 1
 257 361 l 1
EndSplineSet
EndChar

StartChar: afii10054
Encoding: 1029 1029 71
Width: 379
Flags: W
LayerCount: 2
Fore
SplineSet
324 187 m 0
 324 100 262 -8 189 -8 c 0
 109 -8 68 79 55 167 c 0
 51 193 50 262 50 293 c 1
 160 293 l 1
 160 25 l 1
 166 15 176 10 190 10 c 0
 203 10 214 14 219 25 c 1
 219 358 l 2
 219 376 204 387 194 387 c 0
 183 387 162 380 148 366 c 2
 119 338 l 2
 117 336 114 335 112 335 c 0
 106 335 102 340 102 345 c 0
 102 347 103 350 105 352 c 2
 186 428 l 1
 185 428 l 2
 103 428 55 537 55 631 c 0
 55 718 117 808 190 808 c 0
 270 808 311 721 324 633 c 0
 328 607 329 568 329 537 c 1
 219 537 l 1
 219 775 l 1
 213 785 203 790 189 790 c 0
 176 790 165 786 160 775 c 1
 160 478 l 2
 160 460 175 449 185 449 c 0
 196 449 216 456 230 470 c 2
 253 491 l 2
 255 493 258 494 260 494 c 0
 266 494 270 489 270 484 c 0
 270 482 269 479 267 477 c 2
 193 408 l 1
 194 408 l 2
 276 408 324 281 324 187 c 0
EndSplineSet
EndChar

StartChar: afii10102
Encoding: 1109 1109 72
Width: 379
Flags: W
LayerCount: 2
Fore
SplineSet
324 187 m 0
 324 100 262 -8 189 -8 c 0
 109 -8 68 79 55 167 c 0
 51 193 50 262 50 293 c 1
 160 293 l 1
 160 25 l 1
 166 15 176 10 190 10 c 0
 203 10 214 14 219 25 c 1
 219 358 l 2
 219 376 204 387 194 387 c 0
 183 387 162 380 148 366 c 2
 119 338 l 2
 117 336 114 335 112 335 c 0
 106 335 102 340 102 345 c 0
 102 347 103 350 105 352 c 2
 186 428 l 1
 185 428 l 2
 103 428 55 537 55 631 c 0
 55 718 117 808 190 808 c 0
 270 808 311 721 324 633 c 0
 328 607 329 568 329 537 c 1
 219 537 l 1
 219 775 l 1
 213 785 203 790 189 790 c 0
 176 790 165 786 160 775 c 1
 160 478 l 2
 160 460 175 449 185 449 c 0
 196 449 216 456 230 470 c 2
 253 491 l 2
 255 493 258 494 260 494 c 0
 266 494 270 489 270 484 c 0
 270 482 269 479 267 477 c 2
 193 408 l 1
 194 408 l 2
 276 408 324 281 324 187 c 0
EndSplineSet
EndChar

StartChar: afii10104
Encoding: 1111 1111 73
Width: 200
Flags: HW
LayerCount: 2
Fore
SplineSet
150 0 m 1
 50 0 l 1
 50 800 l 1
 150 800 l 1
 150 0 l 1
66 945 m 1
 103 862 l 1
 103 854 l 1
 60 854 l 1
 23 937 l 1
 23 945 l 1
 66 945 l 1
156 945 m 1
 193 862 l 1
 193 854 l 1
 150 854 l 1
 113 937 l 1
 113 945 l 1
 156 945 l 1
EndSplineSet
EndChar

StartChar: .null
Encoding: 0 0 74
Width: 360
Flags: W
LayerCount: 2
Fore
SplineSet
310 0 m 1
 50 0 l 1
 50 800 l 1
 310 800 l 1
 310 0 l 1
190 401 m 1
 290 40 l 1
 290 762 l 1
 190 401 l 1
169 401 m 1
 70 762 l 1
 70 40 l 1
 169 401 l 1
180 362 m 1
 86 20 l 1
 274 20 l 1
 180 362 l 1
86 780 m 1
 180 440 l 1
 273 780 l 1
 86 780 l 1
EndSplineSet
EndChar

StartChar: afii10017
Encoding: 1040 1040 75
Width: 360
Flags: W
LayerCount: 2
Fore
SplineSet
150 690 m 1
 50 690 l 1
 50 800 l 1
 310 800 l 1
 310 0 l 1
 210 0 l 1
 210 448 l 1
 197 436 181 424 162 414 c 2
 150 407 l 1
 150 0 l 1
 50 0 l 1
 50 400 l 1
 82 400 117 413 152 432 c 0
 177 445 195 460 210 477 c 1
 210 511 l 1
 197 499 181 487 162 477 c 0
 123 456 84 443 50 443 c 1
 50 610 l 1
 87 621 114 634 152 658 c 0
 174 673 192 687 210 704 c 1
 210 780 l 1
 150 780 l 1
 150 690 l 1
162 642 m 0
 158 639 154 636 150 634 c 1
 150 494 l 1
 150 494 151 494 152 495 c 0
 177 508 195 523 210 540 c 1
 210 677 l 1
 195 664 180 653 162 642 c 0
EndSplineSet
EndChar

StartChar: afii10018
Encoding: 1041 1041 76
Width: 360
Flags: W
LayerCount: 2
Fore
SplineSet
310 0 m 1
 50 0 l 1
 50 800 l 1
 310 800 l 1
 310 620 l 1
 210 620 l 1
 210 780 l 1
 150 780 l 1
 150 503 l 1
 168 477 192 453 222 434 c 0
 253 415 289 400 310 400 c 1
 310 0 l 1
210 418 m 1
 186 434 166 453 150 472 c 1
 150 20 l 1
 210 20 l 1
 210 418 l 1
EndSplineSet
EndChar

StartChar: afii10019
Encoding: 1042 1042 77
Width: 360
Flags: W
LayerCount: 2
Fore
SplineSet
310 0 m 1
 50 0 l 1
 50 800 l 1
 310 800 l 1
 310 590 l 1
 291 589 232 577 198 553 c 0
 176 538 154 517 154 495 c 0
 154 473 176 452 198 437 c 0
 232 413 291 401 310 400 c 1
 310 0 l 1
186 421 m 0
 173 430 160 442 150 454 c 1
 150 20 l 1
 210 20 l 1
 210 407 l 1
 201 411 193 416 186 421 c 0
186 569 m 0
 193 574 201 578 210 582 c 1
 210 780 l 1
 150 780 l 1
 150 535 l 1
 160 548 173 559 186 569 c 0
EndSplineSet
EndChar

StartChar: afii10020
Encoding: 1043 1043 78
Width: 360
Flags: W
LayerCount: 2
Fore
SplineSet
210 590 m 1
 210 780 l 1
 150 780 l 1
 150 0 l 1
 50 0 l 1
 50 800 l 1
 310 800 l 1
 310 590 l 1
 210 590 l 1
EndSplineSet
EndChar

StartChar: afii10021
Encoding: 1044 1044 79
Width: 394
Flags: W
LayerCount: 2
Fore
SplineSet
167 620 m 1
 67 620 l 1
 67 800 l 1
 327 800 l 1
 327 20 l 1
 374 20 l 1
 374 10 l 1
 281 -116 l 1
 274 -116 l 1
 274 0 l 1
 120 0 l 1
 120 -116 l 1
 113 -116 l 1
 20 10 l 1
 20 20 l 1
 67 20 l 1
 67 400 l 1
 88 400 124 415 155 434 c 0
 185 453 208 477 227 503 c 1
 227 780 l 1
 167 780 l 1
 167 620 l 1
227 20 m 1
 227 472 l 1
 210 452 190 434 167 418 c 1
 167 20 l 1
 227 20 l 1
EndSplineSet
EndChar

StartChar: afii10022
Encoding: 1045 1045 80
Width: 378
Flags: W
LayerCount: 2
Fore
SplineSet
222 26 m 0
 202 7 176 -8 145 -8 c 0
 111 -8 80 11 67 42 c 0
 61 57 57 77 57 90 c 0
 57 112 69 135 98 135 c 0
 128 135 140 112 140 90 c 0
 140 65 121 48 98 48 c 0
 94 48 90 48 86 49 c 1
 91 38 99 29 110 22 c 1
 137 28 153 64 153 84 c 0
 153 128 126 176 110 228 c 0
 90 293 50 403 50 497 c 0
 50 626 92 808 192 808 c 0
 295 808 330 641 331 539 c 1
 221 539 l 1
 221 775 l 1
 215 785 205 790 191 790 c 0
 178 790 166 785 162 775 c 0
 160 762 157 689 157 644 c 0
 157 594 159 527 161 477 c 0
 161 466 162 455 163 444 c 1
 167 449 172 455 178 460 c 0
 193 473 221 482 245 482 c 0
 277 482 305 470 318 442 c 0
 328 421 331 399 331 371 c 1
 221 371 l 1
 221 430 l 2
 221 441 214 449 203 449 c 0
 198 449 193 448 189 446 c 0
 179 439 171 426 165 412 c 1
 170 320 181 243 181 161 c 0
 181 130 179 81 170 55 c 0
 163 33 148 20 135 12 c 1
 145 12 l 2
 169 12 188 24 197 34 c 0
 213 52 221 129 221 191 c 2
 221 312 l 1
 331 312 l 1
 331 230 317 116 222 26 c 0
EndSplineSet
EndChar

StartChar: afii10024
Encoding: 1046 1046 81
Width: 520
Flags: W
LayerCount: 2
Fore
SplineSet
150 0 m 1
 50 0 l 1
 50 400 l 1
 69 401 128 413 162 437 c 0
 184 452 206 473 206 495 c 0
 206 517 184 538 162 553 c 0
 128 577 69 589 50 590 c 1
 50 800 l 1
 150 800 l 1
 150 582 l 1
 158 578 167 574 174 569 c 0
 187 559 200 548 210 535 c 1
 210 800 l 1
 310 800 l 1
 310 535 l 1
 320 548 333 559 346 569 c 0
 353 574 361 578 370 582 c 1
 370 800 l 1
 470 800 l 1
 470 590 l 1
 451 589 392 577 358 553 c 0
 336 538 314 517 314 495 c 0
 314 473 336 452 358 437 c 0
 392 413 451 401 470 400 c 1
 470 0 l 1
 370 0 l 1
 370 407 l 1
 361 411 353 416 346 421 c 0
 333 430 320 442 310 454 c 1
 310 0 l 1
 210 0 l 1
 210 454 l 1
 200 442 187 430 174 421 c 0
 167 416 158 411 150 407 c 1
 150 0 l 1
EndSplineSet
EndChar

StartChar: afii10025
Encoding: 1047 1047 82
Width: 377
Flags: W
LayerCount: 2
Fore
SplineSet
160 348 m 1
 50 348 l 1
 50 367 53 400 69 418 c 0
 101 454 137 458 185 458 c 2
 193 458 l 1
 210 465 219 477 219 496 c 2
 219 775 l 1
 214 786 203 790 190 790 c 0
 176 790 166 785 160 775 c 1
 160 557 l 1
 50 557 l 1
 50 581 52 607 55 633 c 0
 67 722 109 808 189 808 c 0
 262 808 324 718 324 631 c 0
 324 543 294 468 221 452 c 1
 288 428 327 337 327 236 c 0
 327 117 281 -8 192 -8 c 0
 104 -8 65 106 53 205 c 0
 50 233 50 251 50 276 c 1
 160 276 l 1
 160 24 l 1
 166 14 176 9 190 9 c 0
 203 9 213 14 219 24 c 1
 219 425 l 1
 214 436 203 440 190 440 c 0
 176 440 166 435 160 425 c 1
 160 348 l 1
EndSplineSet
EndChar

StartChar: afii10026
Encoding: 1048 1048 83
Width: 360
Flags: W
LayerCount: 2
Fore
SplineSet
150 0 m 1
 50 0 l 1
 50 800 l 1
 150 800 l 1
 150 400 l 1
 157 406 165 413 173 421 c 0
 187 435 199 447 210 459 c 1
 210 800 l 1
 310 800 l 1
 310 0 l 1
 210 0 l 1
 210 429 l 1
 187 407 l 2
 173 394 161 383 150 374 c 1
 150 0 l 1
EndSplineSet
EndChar

StartChar: afii10027
Encoding: 1049 1049 84
Width: 360
Flags: W
LayerCount: 2
Fore
SplineSet
150 0 m 1
 50 0 l 1
 50 800 l 1
 150 800 l 1
 150 400 l 1
 157 406 165 413 173 421 c 0
 187 435 199 447 210 459 c 1
 210 800 l 1
 310 800 l 1
 310 0 l 1
 210 0 l 1
 210 429 l 1
 203 422 195 415 187 407 c 0
 173 394 161 383 150 374 c 1
 150 0 l 1
245 960 m 5
 261 960 l 5
 262 956 258 932 254 920 c 4
 240 875 214 822 168 822 c 4
 136 822 115 862 115 898 c 4
 115 925 125 953 130 962 c 5
 146 962 l 5
 142 952 137 938 137 921 c 4
 137 900 157 882 177 882 c 4
 218 882 244 927 245 960 c 5
EndSplineSet
EndChar

StartChar: afii10028
Encoding: 1050 1050 85
Width: 360
Flags: W
LayerCount: 2
Fore
SplineSet
150 0 m 1
 50 0 l 1
 50 800 l 1
 150 800 l 1
 150 535 l 1
 160 548 173 559 186 569 c 0
 193 574 201 578 210 582 c 1
 210 800 l 1
 310 800 l 1
 310 590 l 1
 291 589 232 577 198 553 c 0
 176 538 154 517 154 495 c 0
 154 473 176 452 198 437 c 0
 232 413 291 401 310 400 c 1
 310 0 l 1
 210 0 l 1
 210 407 l 1
 201 411 193 416 186 421 c 0
 173 430 160 442 150 454 c 1
 150 0 l 1
EndSplineSet
EndChar

StartChar: afii10029
Encoding: 1051 1051 86
Width: 360
Flags: W
LayerCount: 2
Fore
SplineSet
150 590 m 1
 50 590 l 1
 50 800 l 1
 310 800 l 1
 310 0 l 1
 210 0 l 1
 210 472 l 1
 193 452 173 434 150 418 c 1
 150 0 l 1
 50 0 l 1
 50 400 l 1
 71 400 107 415 138 434 c 0
 168 453 191 477 210 503 c 1
 210 780 l 1
 150 780 l 1
 150 590 l 1
EndSplineSet
EndChar

StartChar: afii10030
Encoding: 1052 1052 87
Width: 520
Flags: W
LayerCount: 2
Fore
SplineSet
150 0 m 1
 50 0 l 1
 50 400 l 1
 71 400 107 415 138 434 c 0
 168 453 191 477 210 503 c 1
 210 780 l 1
 150 780 l 1
 150 620 l 1
 50 620 l 1
 50 800 l 1
 310 800 l 1
 310 420 l 1
 317 426 325 433 333 441 c 0
 347 455 359 467 370 479 c 1
 370 800 l 1
 470 800 l 1
 470 0 l 1
 370 0 l 1
 370 449 l 1
 363 442 355 435 347 427 c 0
 333 414 321 403 310 394 c 1
 310 0 l 1
 210 0 l 1
 210 472 l 1
 193 452 173 434 150 418 c 1
 150 0 l 1
EndSplineSet
EndChar

StartChar: afii10031
Encoding: 1053 1053 88
Width: 360
Flags: W
LayerCount: 2
Fore
SplineSet
150 0 m 1
 50 0 l 1
 50 800 l 1
 150 800 l 1
 150 459 l 1
 160 447 172 435 187 421 c 0
 195 413 202 406 210 400 c 1
 210 800 l 1
 310 800 l 1
 310 0 l 1
 210 0 l 1
 210 374 l 1
 198 383 186 394 173 407 c 0
 164 415 157 422 150 429 c 1
 150 0 l 1
EndSplineSet
EndChar

StartChar: afii10032
Encoding: 1054 1054 89
Width: 359
Flags: W
LayerCount: 2
Fore
SplineSet
314 374 m 0
 314 290 291 220 263 160 c 0
 246 126 229 97 212 70 c 0
 194 40 175 12 170 -8 c 1
 147 -8 l 1
 148 3 149 13 148 32 c 0
 147 83 114 156 90 216 c 0
 65 276 45 351 45 426 c 0
 45 510 68 580 96 640 c 0
 113 674 130 703 147 730 c 0
 165 760 184 788 189 808 c 1
 212 808 l 1
 211 797 210 787 211 768 c 0
 212 717 245 644 269 584 c 0
 294 524 314 449 314 374 c 0
155 584 m 0
 145 614 137 647 132 667 c 1
 125 655 120 643 115 632 c 0
 111 620 108 595 108 573 c 0
 108 514 132 434 154 362 c 0
 167 314 189 262 204 216 c 0
 213 186 222 153 226 132 c 1
 233 145 239 157 244 168 c 0
 248 180 251 205 251 227 c 0
 251 286 227 366 205 438 c 0
 192 486 170 538 155 584 c 0
EndSplineSet
EndChar

StartChar: afii10033
Encoding: 1055 1055 90
Width: 360
Flags: W
LayerCount: 2
Fore
SplineSet
210 0 m 1
 210 780 l 1
 150 780 l 1
 150 0 l 1
 50 0 l 1
 50 800 l 1
 310 800 l 1
 310 0 l 1
 210 0 l 1
EndSplineSet
EndChar

StartChar: afii10034
Encoding: 1056 1056 91
Width: 360
Flags: W
LayerCount: 2
Fore
SplineSet
150 0 m 1
 50 0 l 1
 50 800 l 1
 310 800 l 1
 310 419 l 1
 286 419 240 414 208 395 c 0
 182 379 163 359 150 339 c 1
 150 0 l 1
198 412 m 2
 210 418 l 1
 210 780 l 1
 150 780 l 1
 150 371 l 1
 163 386 178 400 198 412 c 2
EndSplineSet
EndChar

StartChar: afii10035
Encoding: 1057 1057 92
Width: 375
Flags: W
LayerCount: 2
Fore
SplineSet
203 28 m 0
 183 9 163 -8 132 -8 c 0
 98 -8 67 11 54 42 c 0
 48 57 44 77 44 90 c 0
 44 112 56 135 85 135 c 0
 115 135 127 112 127 90 c 0
 127 65 108 48 85 48 c 0
 81 48 77 48 73 49 c 1
 79 37 87 26 101 26 c 0
 135 26 142 52 142 72 c 0
 142 113 116 177 99 228 c 0
 78 293 50 400 50 494 c 0
 50 601 89 808 189 808 c 0
 292 808 324 610 328 519 c 1
 218 519 l 1
 218 775 l 1
 212 785 202 790 188 790 c 0
 175 790 163 785 159 775 c 0
 158 760 154 711 154 660 c 0
 154 608 158 533 161 477 c 0
 166 361 177 337 177 246 c 0
 177 180 168 72 158 41 c 0
 152 23 140 14 127 12 c 2
 132 12 l 2
 156 12 169 26 178 36 c 0
 194 54 218 128 218 190 c 2
 218 342 l 1
 328 342 l 1
 323 261 298 118 203 28 c 0
EndSplineSet
EndChar

StartChar: afii10036
Encoding: 1058 1058 93
Width: 520
Flags: W
LayerCount: 2
Fore
SplineSet
210 0 m 1
 210 780 l 1
 150 780 l 1
 150 480 l 1
 50 480 l 1
 50 800 l 1
 470 800 l 1
 470 570 l 1
 370 570 l 1
 370 780 l 1
 310 780 l 1
 310 0 l 1
 210 0 l 1
EndSplineSet
EndChar

StartChar: uniA64A
Encoding: 42570 42570 94
Width: 370
Flags: W
LayerCount: 2
Fore
SplineSet
181 7 m 1
 174 0 156 -8 139 -8 c 0
 96 -8 47 24 47 79 c 0
 47 132 81 171 126 171 c 0
 146 171 166 166 177 155 c 1
 182 250 l 1
 84 250 l 1
 50 800 l 1
 155 800 l 1
 185 314 l 1
 200 627 l 2
 206 753 243 808 288 808 c 2
 343 808 l 1
 343 800 l 1
 333 784 329 769 325 749 c 0
 321 729 318 700 317 687 c 2
 317 678 l 1
 271 678 l 2
 250 678 223 666 221 621 c 2
 197 154 l 1
 208 166 225 171 245 171 c 0
 290 171 315 132 315 79 c 0
 315 24 266 -8 223 -8 c 0
 206 -8 188 0 181 7 c 1
123 59 m 1
 155 68 174 82 176 126 c 2
 176 136 l 1
 165 148 150 153 135 153 c 0
 119 153 103 139 103 118 c 2
 103 51 l 2
 103 28 118 10 137 10 c 0
 155 10 170 17 181 28 c 1
 192 17 207 10 225 10 c 0
 244 10 259 28 259 51 c 2
 259 118 l 2
 259 139 247 153 231 153 c 0
 214 153 206 148 196 133 c 1
 196 111 l 2
 196 82 203 68 235 59 c 1
 235 41 l 1
 123 41 l 1
 123 59 l 1
EndSplineSet
EndChar

StartChar: afii10038
Encoding: 1060 1060 95
Width: 560
Flags: W
LayerCount: 2
Fore
SplineSet
330 0 m 1
 230 0 l 1
 230 159 l 1
 211 141 186 125 161 125 c 0
 85 125 50 203 50 278 c 0
 50 417 104 479 171 560 c 0
 182 576 216 614 216 650 c 0
 216 672 201 707 176 707 c 1
 168 703 167 685 167 672 c 0
 167 644 171 617 173 597 c 2
 173 590 l 1
 67 590 l 1
 67 597 l 1
 79 661 107 730 161 730 c 0
 199 730 220 711 230 686 c 1
 230 800 l 1
 330 800 l 1
 330 686 l 1
 339 711 361 730 399 730 c 0
 453 730 481 661 493 597 c 1
 493 590 l 1
 387 590 l 1
 387 597 l 2
 389 617 393 644 393 672 c 0
 393 685 392 703 384 707 c 1
 359 707 344 672 344 650 c 0
 344 614 378 576 389 560 c 0
 456 479 510 417 510 278 c 0
 510 203 475 125 399 125 c 0
 373 125 348 141 330 159 c 1
 330 0 l 1
362 555 m 0
 349 579 337 595 330 614 c 1
 330 187 l 1
 344 172 359 159 375 159 c 0
 400 159 400 244 400 296 c 0
 400 373 392 439 382 494 c 0
 379 512 369 539 362 555 c 0
185 159 m 0
 200 159 216 172 230 187 c 1
 230 614 l 1
 223 595 210 579 198 555 c 0
 191 539 181 512 178 494 c 0
 168 439 160 373 160 296 c 0
 160 244 160 159 185 159 c 0
EndSplineSet
EndChar

StartChar: afii10039
Encoding: 1061 1061 96
Width: 401
Flags: W
LayerCount: 2
Fore
SplineSet
337 808 m 2
 367 808 l 1
 367 800 l 1
 357 783 353 769 349 749 c 0
 345 729 342 700 341 687 c 2
 341 678 l 1
 301 678 l 2
 280 678 258 668 250 635 c 2
 226 532 l 1
 355 0 l 1
 252 0 l 1
 175 316 l 1
 125 101 l 2
 124 95 123 89 123 83 c 0
 123 44 152 20 152 20 c 1
 152 0 l 1
 40 0 l 1
 40 20 l 1
 40 20 93 51 105 105 c 2
 164 361 l 1
 58 800 l 1
 161 800 l 1
 214 579 l 1
 229 641 l 2
 249 726 268 808 337 808 c 2
EndSplineSet
EndChar

StartChar: afii10040
Encoding: 1062 1062 97
Width: 404
Flags: W
LayerCount: 2
Fore
SplineSet
330 -133 m 0
 309 -133 276 -129 259 -114 c 0
 246 -102 240 -95 226 -83 c 0
 216 -74 209 -66 196 -66 c 0
 191 -66 188 -73 188 -83 c 2
 188 -134 l 1
 100 -134 l 1
 100 -75 l 2
 100 -51 121 -22 147 -22 c 0
 168 -22 183 -26 198 -35 c 0
 211 -43 225 -55 240 -68 c 0
 249 -75 257 -85 266 -93 c 0
 270 -96 274 -97 278 -97 c 0
 285 -97 289 -91 289 -80 c 2
 289 0 l 1
 50 0 l 1
 50 800 l 1
 150 800 l 1
 150 20 l 1
 210 20 l 1
 210 800 l 1
 310 800 l 1
 310 20 l 1
 384 20 l 1
 384 -60 l 2
 384 -103 354 -133 330 -133 c 0
EndSplineSet
EndChar

StartChar: afii10041
Encoding: 1063 1063 98
Width: 360
Flags: W
LayerCount: 2
Fore
SplineSet
310 0 m 1
 210 0 l 1
 210 339 l 1
 196 359 177 379 152 395 c 0
 120 414 74 419 50 419 c 1
 50 800 l 1
 150 800 l 1
 150 418 l 1
 162 412 l 2
 181 400 197 386 210 371 c 1
 210 800 l 1
 310 800 l 1
 310 0 l 1
EndSplineSet
EndChar

StartChar: afii10042
Encoding: 1064 1064 99
Width: 520
Flags: W
LayerCount: 2
Fore
SplineSet
50 0 m 1
 50 800 l 1
 150 800 l 1
 150 20 l 1
 210 20 l 1
 210 800 l 1
 310 800 l 1
 310 20 l 1
 370 20 l 1
 370 800 l 1
 470 800 l 1
 470 0 l 1
 50 0 l 1
EndSplineSet
EndChar

StartChar: afii10043
Encoding: 1065 1065 100
Width: 520
Flags: W
LayerCount: 2
Fore
SplineSet
325 -69 m 1
 265 -143 l 1
 256 -143 l 1
 195 -69 l 1
 195 -62 l 1
 246 0 l 1
 50 0 l 1
 50 800 l 1
 150 800 l 1
 150 20 l 1
 210 20 l 1
 210 800 l 1
 310 800 l 1
 310 20 l 1
 370 20 l 1
 370 800 l 1
 470 800 l 1
 470 0 l 1
 274 0 l 1
 325 -62 l 1
 325 -69 l 1
EndSplineSet
EndChar

StartChar: afii10044
Encoding: 1066 1066 101
Width: 394
Flags: W
LayerCount: 2
Fore
SplineSet
150 620 m 1
 50 620 l 1
 50 800 l 1
 344 800 l 1
 245 405 l 1
 254 387 268 373 286 363 c 0
 306 351 327 347 344 347 c 1
 344 0 l 1
 40 0 l 1
 235 780 l 1
 150 780 l 1
 150 620 l 1
244 371 m 1
 238 378 l 1
 149 20 l 1
 244 20 l 1
 244 371 l 1
EndSplineSet
EndChar

StartChar: afii10045
Encoding: 1067 1067 102
Width: 528
Flags: W
LayerCount: 2
Fore
SplineSet
310 0 m 1
 50 0 l 1
 50 800 l 1
 150 800 l 1
 150 463 l 1
 168 437 192 413 222 394 c 0
 253 375 289 360 310 360 c 1
 310 0 l 1
378 0 m 1
 378 800 l 1
 478 800 l 1
 478 0 l 1
 378 0 l 1
210 378 m 1
 186 394 166 413 150 432 c 1
 150 20 l 1
 210 20 l 1
 210 378 l 1
EndSplineSet
EndChar

StartChar: afii10046
Encoding: 1068 1068 103
Width: 360
Flags: W
LayerCount: 2
Fore
SplineSet
310 0 m 1
 50 0 l 1
 50 800 l 1
 150 800 l 1
 150 463 l 1
 168 437 192 413 222 394 c 0
 253 375 289 360 310 360 c 1
 310 0 l 1
210 378 m 1
 186 394 166 413 150 432 c 1
 150 20 l 1
 210 20 l 1
 210 378 l 1
EndSplineSet
EndChar

StartChar: afii10048
Encoding: 1070 1070 104
Width: 512
Flags: W
LayerCount: 2
Fore
SplineSet
150 0 m 1
 50 0 l 1
 50 800 l 1
 150 800 l 1
 150 402 l 1
 198 430 l 1
 198 512 221 581 249 640 c 0
 266 674 283 703 300 730 c 0
 318 760 337 788 342 808 c 1
 365 808 l 1
 364 797 363 787 364 768 c 0
 365 717 398 644 422 584 c 0
 447 524 467 449 467 374 c 0
 467 290 444 220 416 160 c 0
 399 126 382 97 365 70 c 0
 347 40 328 12 323 -8 c 1
 300 -8 l 1
 301 3 302 13 301 32 c 0
 300 83 267 156 243 216 c 0
 220 271 201 338 198 406 c 1
 150 379 l 1
 150 0 l 1
308 584 m 0
 298 614 289 647 285 667 c 1
 278 655 273 643 268 632 c 0
 264 620 261 595 261 573 c 0
 261 514 285 434 307 362 c 0
 320 314 342 262 357 216 c 0
 366 186 375 153 379 132 c 1
 386 145 392 157 397 168 c 0
 401 180 404 205 404 227 c 0
 404 286 380 366 358 438 c 0
 345 486 323 538 308 584 c 0
EndSplineSet
EndChar

StartChar: uniA656
Encoding: 42582 42582 105
Width: 520
Flags: W
LayerCount: 2
Fore
SplineSet
310 0 m 1
 210 0 l 1
 210 390 l 1
 242 390 277 403 312 422 c 0
 337 435 355 450 370 467 c 1
 370 491 l 1
 357 479 341 467 322 457 c 0
 283 436 244 423 210 423 c 1
 210 580 l 1
 247 591 274 604 312 628 c 0
 328 638 342 649 355 660 c 1
 150 660 l 1
 150 0 l 1
 50 0 l 1
 50 800 l 1
 150 800 l 1
 150 680 l 1
 370 680 l 1
 370 780 l 1
 310 780 l 1
 310 690 l 1
 210 690 l 1
 210 800 l 1
 470 800 l 1
 470 0 l 1
 370 0 l 1
 370 438 l 1
 357 426 341 414 322 404 c 2
 310 397 l 1
 310 0 l 1
322 612 m 0
 318 609 314 606 310 604 c 1
 310 474 l 1
 310 474 311 474 312 475 c 0
 337 488 355 503 370 520 c 1
 370 647 l 1
 355 634 340 623 322 612 c 0
EndSplineSet
EndChar

StartChar: afii10065
Encoding: 1072 1072 106
Width: 360
Flags: W
LayerCount: 2
Fore
SplineSet
150 690 m 1
 50 690 l 1
 50 800 l 1
 310 800 l 1
 310 0 l 1
 210 0 l 1
 210 448 l 1
 197 436 181 424 162 414 c 2
 150 407 l 1
 150 0 l 1
 50 0 l 1
 50 400 l 1
 82 400 117 413 152 432 c 0
 177 445 195 460 210 477 c 1
 210 511 l 1
 197 499 181 487 162 477 c 0
 123 456 84 443 50 443 c 1
 50 610 l 1
 87 621 114 634 152 658 c 0
 174 673 192 687 210 704 c 1
 210 780 l 1
 150 780 l 1
 150 690 l 1
162 642 m 0
 158 639 154 636 150 634 c 1
 150 494 l 1
 150 494 151 494 152 495 c 0
 177 508 195 523 210 540 c 1
 210 677 l 1
 195 664 180 653 162 642 c 0
EndSplineSet
EndChar

StartChar: afii10066
Encoding: 1073 1073 107
Width: 360
Flags: W
LayerCount: 2
Fore
SplineSet
310 0 m 1
 50 0 l 1
 50 800 l 1
 310 800 l 1
 310 620 l 1
 210 620 l 1
 210 780 l 1
 150 780 l 1
 150 503 l 1
 168 477 192 453 222 434 c 0
 253 415 289 400 310 400 c 1
 310 0 l 1
210 418 m 1
 186 434 166 453 150 472 c 1
 150 20 l 1
 210 20 l 1
 210 418 l 1
EndSplineSet
EndChar

StartChar: afii10067
Encoding: 1074 1074 108
Width: 360
Flags: W
LayerCount: 2
Fore
SplineSet
310 0 m 1
 50 0 l 1
 50 800 l 1
 310 800 l 1
 310 590 l 1
 291 589 232 577 198 553 c 0
 176 538 154 517 154 495 c 0
 154 473 176 452 198 437 c 0
 232 413 291 401 310 400 c 1
 310 0 l 1
186 421 m 0
 173 430 160 442 150 454 c 1
 150 20 l 1
 210 20 l 1
 210 407 l 1
 201 411 193 416 186 421 c 0
186 569 m 0
 193 574 201 578 210 582 c 1
 210 780 l 1
 150 780 l 1
 150 535 l 1
 160 548 173 559 186 569 c 0
EndSplineSet
EndChar

StartChar: afii10068
Encoding: 1075 1075 109
Width: 360
Flags: W
LayerCount: 2
Fore
SplineSet
210 590 m 1
 210 780 l 1
 150 780 l 1
 150 0 l 1
 50 0 l 1
 50 800 l 1
 310 800 l 1
 310 590 l 1
 210 590 l 1
EndSplineSet
EndChar

StartChar: afii10069
Encoding: 1076 1076 110
Width: 394
Flags: W
LayerCount: 2
Fore
SplineSet
167 620 m 1
 67 620 l 1
 67 800 l 1
 327 800 l 1
 327 20 l 1
 374 20 l 1
 374 10 l 1
 281 -116 l 1
 274 -116 l 1
 274 0 l 1
 120 0 l 1
 120 -116 l 1
 113 -116 l 1
 20 10 l 1
 20 20 l 1
 67 20 l 1
 67 400 l 1
 88 400 124 415 155 434 c 0
 185 453 208 477 227 503 c 1
 227 780 l 1
 167 780 l 1
 167 620 l 1
227 20 m 1
 227 472 l 1
 210 452 190 434 167 418 c 1
 167 20 l 1
 227 20 l 1
EndSplineSet
EndChar

StartChar: afii10070
Encoding: 1077 1077 111
Width: 378
Flags: W
LayerCount: 2
Fore
SplineSet
222 26 m 0
 202 7 176 -8 145 -8 c 0
 111 -8 80 11 67 42 c 0
 61 57 57 77 57 90 c 0
 57 112 69 135 98 135 c 0
 128 135 140 112 140 90 c 0
 140 65 121 48 98 48 c 0
 94 48 90 48 86 49 c 1
 91 38 99 29 110 22 c 1
 137 28 153 64 153 84 c 0
 153 128 126 176 110 228 c 0
 90 293 50 403 50 497 c 0
 50 626 92 808 192 808 c 0
 295 808 330 641 331 539 c 1
 221 539 l 1
 221 775 l 1
 215 785 205 790 191 790 c 0
 178 790 166 785 162 775 c 0
 160 762 157 689 157 644 c 0
 157 594 159 527 161 477 c 0
 161 466 162 455 163 444 c 1
 167 449 172 455 178 460 c 0
 193 473 221 482 245 482 c 0
 277 482 305 470 318 442 c 0
 328 421 331 399 331 371 c 1
 221 371 l 1
 221 430 l 2
 221 441 214 449 203 449 c 0
 198 449 193 448 189 446 c 0
 179 439 171 426 165 412 c 1
 170 320 181 243 181 161 c 0
 181 130 179 81 170 55 c 0
 163 33 148 20 135 12 c 1
 145 12 l 2
 169 12 188 24 197 34 c 0
 213 52 221 129 221 191 c 2
 221 312 l 1
 331 312 l 1
 331 230 317 116 222 26 c 0
EndSplineSet
EndChar

StartChar: afii10072
Encoding: 1078 1078 112
Width: 520
Flags: W
LayerCount: 2
Fore
SplineSet
150 0 m 1
 50 0 l 1
 50 400 l 1
 69 401 128 413 162 437 c 0
 184 452 206 473 206 495 c 0
 206 517 184 538 162 553 c 0
 128 577 69 589 50 590 c 1
 50 800 l 1
 150 800 l 1
 150 582 l 1
 158 578 167 574 174 569 c 0
 187 559 200 548 210 535 c 1
 210 800 l 1
 310 800 l 1
 310 535 l 1
 320 548 333 559 346 569 c 0
 353 574 361 578 370 582 c 1
 370 800 l 1
 470 800 l 1
 470 590 l 1
 451 589 392 577 358 553 c 0
 336 538 314 517 314 495 c 0
 314 473 336 452 358 437 c 0
 392 413 451 401 470 400 c 1
 470 0 l 1
 370 0 l 1
 370 407 l 1
 361 411 353 416 346 421 c 0
 333 430 320 442 310 454 c 1
 310 0 l 1
 210 0 l 1
 210 454 l 1
 200 442 187 430 174 421 c 0
 167 416 158 411 150 407 c 1
 150 0 l 1
EndSplineSet
EndChar

StartChar: afii10073
Encoding: 1079 1079 113
Width: 377
Flags: W
LayerCount: 2
Fore
SplineSet
160 348 m 1
 50 348 l 1
 50 367 53 400 69 418 c 0
 101 454 137 458 185 458 c 2
 193 458 l 1
 210 465 219 477 219 496 c 2
 219 775 l 1
 214 786 203 790 190 790 c 0
 176 790 166 785 160 775 c 1
 160 557 l 1
 50 557 l 1
 50 581 52 607 55 633 c 0
 67 722 109 808 189 808 c 0
 262 808 324 718 324 631 c 0
 324 543 294 468 221 452 c 1
 288 428 327 337 327 236 c 0
 327 117 281 -8 192 -8 c 0
 104 -8 65 106 53 205 c 0
 50 233 50 251 50 276 c 1
 160 276 l 1
 160 24 l 1
 166 14 176 9 190 9 c 0
 203 9 213 14 219 24 c 1
 219 425 l 1
 214 436 203 440 190 440 c 0
 176 440 166 435 160 425 c 1
 160 348 l 1
EndSplineSet
EndChar

StartChar: afii10074
Encoding: 1080 1080 114
Width: 360
Flags: W
LayerCount: 2
Fore
SplineSet
150 0 m 1
 50 0 l 1
 50 800 l 1
 150 800 l 1
 150 400 l 1
 157 406 165 413 173 421 c 0
 187 435 199 447 210 459 c 1
 210 800 l 1
 310 800 l 1
 310 0 l 1
 210 0 l 1
 210 429 l 1
 187 407 l 2
 173 394 161 383 150 374 c 1
 150 0 l 1
EndSplineSet
EndChar

StartChar: afii10075
Encoding: 1081 1081 115
Width: 360
Flags: W
LayerCount: 2
Fore
SplineSet
150 0 m 1
 50 0 l 1
 50 800 l 1
 150 800 l 1
 150 400 l 1
 157 406 165 413 173 421 c 0
 187 435 199 447 210 459 c 1
 210 800 l 1
 310 800 l 1
 310 0 l 1
 210 0 l 1
 210 429 l 1
 203 422 195 415 187 407 c 0
 173 394 161 383 150 374 c 1
 150 0 l 1
245 960 m 1
 261 960 l 1
 262 956 258 932 254 920 c 0
 240 875 214 822 168 822 c 0
 136 822 115 862 115 898 c 0
 115 925 125 953 130 962 c 1
 146 962 l 1
 142 952 137 938 137 921 c 0
 137 900 157 882 177 882 c 0
 218 882 244 927 245 960 c 1
EndSplineSet
EndChar

StartChar: afii10076
Encoding: 1082 1082 116
Width: 360
Flags: W
LayerCount: 2
Fore
SplineSet
150 0 m 1
 50 0 l 1
 50 800 l 1
 150 800 l 1
 150 535 l 1
 160 548 173 559 186 569 c 0
 193 574 201 578 210 582 c 1
 210 800 l 1
 310 800 l 1
 310 590 l 1
 291 589 232 577 198 553 c 0
 176 538 154 517 154 495 c 0
 154 473 176 452 198 437 c 0
 232 413 291 401 310 400 c 1
 310 0 l 1
 210 0 l 1
 210 407 l 1
 201 411 193 416 186 421 c 0
 173 430 160 442 150 454 c 1
 150 0 l 1
EndSplineSet
EndChar

StartChar: afii10077
Encoding: 1083 1083 117
Width: 360
Flags: W
LayerCount: 2
Fore
SplineSet
150 590 m 1
 50 590 l 1
 50 800 l 1
 310 800 l 1
 310 0 l 1
 210 0 l 1
 210 472 l 1
 193 452 173 434 150 418 c 1
 150 0 l 1
 50 0 l 1
 50 400 l 1
 71 400 107 415 138 434 c 0
 168 453 191 477 210 503 c 1
 210 780 l 1
 150 780 l 1
 150 590 l 1
EndSplineSet
EndChar

StartChar: afii10078
Encoding: 1084 1084 118
Width: 520
Flags: W
LayerCount: 2
Fore
SplineSet
150 0 m 1
 50 0 l 1
 50 400 l 1
 71 400 107 415 138 434 c 0
 168 453 191 477 210 503 c 1
 210 780 l 1
 150 780 l 1
 150 620 l 1
 50 620 l 1
 50 800 l 1
 310 800 l 1
 310 420 l 1
 317 426 325 433 333 441 c 0
 347 455 359 467 370 479 c 1
 370 800 l 1
 470 800 l 1
 470 0 l 1
 370 0 l 1
 370 449 l 1
 363 442 355 435 347 427 c 0
 333 414 321 403 310 394 c 1
 310 0 l 1
 210 0 l 1
 210 472 l 1
 193 452 173 434 150 418 c 1
 150 0 l 1
EndSplineSet
EndChar

StartChar: afii10079
Encoding: 1085 1085 119
Width: 360
Flags: W
LayerCount: 2
Fore
SplineSet
150 0 m 1
 50 0 l 1
 50 800 l 1
 150 800 l 1
 150 459 l 1
 160 447 172 435 187 421 c 0
 195 413 202 406 210 400 c 1
 210 800 l 1
 310 800 l 1
 310 0 l 1
 210 0 l 1
 210 374 l 1
 198 383 186 394 173 407 c 0
 164 415 157 422 150 429 c 1
 150 0 l 1
EndSplineSet
EndChar

StartChar: afii10080
Encoding: 1086 1086 120
Width: 359
Flags: W
LayerCount: 2
Fore
SplineSet
314 374 m 0
 314 290 291 220 263 160 c 0
 246 126 229 97 212 70 c 0
 194 40 175 12 170 -8 c 1
 147 -8 l 1
 148 3 149 13 148 32 c 0
 147 83 114 156 90 216 c 0
 65 276 45 351 45 426 c 0
 45 510 68 580 96 640 c 0
 113 674 130 703 147 730 c 0
 165 760 184 788 189 808 c 1
 212 808 l 1
 211 797 210 787 211 768 c 0
 212 717 245 644 269 584 c 0
 294 524 314 449 314 374 c 0
155 584 m 0
 145 614 137 647 132 667 c 1
 125 655 120 643 115 632 c 0
 111 620 108 595 108 573 c 0
 108 514 132 434 154 362 c 0
 167 314 189 262 204 216 c 0
 213 186 222 153 226 132 c 1
 233 145 239 157 244 168 c 0
 248 180 251 205 251 227 c 0
 251 286 227 366 205 438 c 0
 192 486 170 538 155 584 c 0
EndSplineSet
EndChar

StartChar: afii10081
Encoding: 1087 1087 121
Width: 360
Flags: W
LayerCount: 2
Fore
SplineSet
210 0 m 1
 210 780 l 1
 150 780 l 1
 150 0 l 1
 50 0 l 1
 50 800 l 1
 310 800 l 1
 310 0 l 1
 210 0 l 1
EndSplineSet
EndChar

StartChar: afii10082
Encoding: 1088 1088 122
Width: 360
Flags: W
LayerCount: 2
Fore
SplineSet
150 0 m 1
 50 0 l 1
 50 800 l 1
 310 800 l 1
 310 419 l 1
 286 419 240 414 208 395 c 0
 182 379 163 359 150 339 c 1
 150 0 l 1
198 412 m 2
 210 418 l 1
 210 780 l 1
 150 780 l 1
 150 371 l 1
 163 386 178 400 198 412 c 2
EndSplineSet
EndChar

StartChar: afii10083
Encoding: 1089 1089 123
Width: 375
Flags: W
LayerCount: 2
Fore
SplineSet
203 28 m 0
 183 9 163 -8 132 -8 c 0
 98 -8 67 11 54 42 c 0
 48 57 44 77 44 90 c 0
 44 112 56 135 85 135 c 0
 115 135 127 112 127 90 c 0
 127 65 108 48 85 48 c 0
 81 48 77 48 73 49 c 1
 79 37 87 26 101 26 c 0
 135 26 142 52 142 72 c 0
 142 113 116 177 99 228 c 0
 78 293 50 400 50 494 c 0
 50 601 89 808 189 808 c 0
 292 808 324 610 328 519 c 1
 218 519 l 1
 218 775 l 1
 212 785 202 790 188 790 c 0
 175 790 163 785 159 775 c 0
 158 760 154 711 154 660 c 0
 154 608 158 533 161 477 c 0
 166 361 177 337 177 246 c 0
 177 180 168 72 158 41 c 0
 152 23 140 14 127 12 c 2
 132 12 l 2
 156 12 169 26 178 36 c 0
 194 54 218 128 218 190 c 2
 218 342 l 1
 328 342 l 1
 323 261 298 118 203 28 c 0
EndSplineSet
EndChar

StartChar: afii10084
Encoding: 1090 1090 124
Width: 520
Flags: W
LayerCount: 2
Fore
SplineSet
210 0 m 1
 210 780 l 1
 150 780 l 1
 150 480 l 1
 50 480 l 1
 50 800 l 1
 470 800 l 1
 470 570 l 1
 370 570 l 1
 370 780 l 1
 310 780 l 1
 310 0 l 1
 210 0 l 1
EndSplineSet
EndChar

StartChar: uniA64B
Encoding: 42571 42571 125
Width: 370
Flags: W
LayerCount: 2
Fore
SplineSet
181 7 m 1
 174 0 156 -8 139 -8 c 0
 96 -8 47 24 47 79 c 0
 47 132 81 171 126 171 c 0
 146 171 166 166 177 155 c 1
 182 250 l 1
 84 250 l 1
 50 800 l 1
 155 800 l 1
 185 314 l 1
 200 627 l 2
 206 753 243 808 288 808 c 2
 343 808 l 1
 343 800 l 1
 333 784 329 769 325 749 c 0
 321 729 318 700 317 687 c 2
 317 678 l 1
 271 678 l 2
 250 678 223 666 221 621 c 2
 197 154 l 1
 208 166 225 171 245 171 c 0
 290 171 315 132 315 79 c 0
 315 24 266 -8 223 -8 c 0
 206 -8 188 0 181 7 c 1
123 59 m 1
 155 68 174 82 176 126 c 2
 176 136 l 1
 165 148 150 153 135 153 c 0
 119 153 103 139 103 118 c 2
 103 51 l 2
 103 28 118 10 137 10 c 0
 155 10 170 17 181 28 c 1
 192 17 207 10 225 10 c 0
 244 10 259 28 259 51 c 2
 259 118 l 2
 259 139 247 153 231 153 c 0
 214 153 206 148 196 133 c 1
 196 111 l 2
 196 82 203 68 235 59 c 1
 235 41 l 1
 123 41 l 1
 123 59 l 1
EndSplineSet
EndChar

StartChar: afii10086
Encoding: 1092 1092 126
Width: 560
Flags: W
LayerCount: 2
Fore
SplineSet
330 0 m 1
 230 0 l 1
 230 159 l 1
 211 141 186 125 161 125 c 0
 85 125 50 203 50 278 c 0
 50 417 104 479 171 560 c 0
 182 576 216 614 216 650 c 0
 216 672 201 707 176 707 c 1
 168 703 167 685 167 672 c 0
 167 644 171 617 173 597 c 2
 173 590 l 1
 67 590 l 1
 67 597 l 1
 79 661 107 730 161 730 c 0
 199 730 220 711 230 686 c 1
 230 800 l 1
 330 800 l 1
 330 686 l 1
 339 711 361 730 399 730 c 0
 453 730 481 661 493 597 c 1
 493 590 l 1
 387 590 l 1
 387 597 l 2
 389 617 393 644 393 672 c 0
 393 685 392 703 384 707 c 1
 359 707 344 672 344 650 c 0
 344 614 378 576 389 560 c 0
 456 479 510 417 510 278 c 0
 510 203 475 125 399 125 c 0
 373 125 348 141 330 159 c 1
 330 0 l 1
362 555 m 0
 349 579 337 595 330 614 c 1
 330 187 l 1
 344 172 359 159 375 159 c 0
 400 159 400 244 400 296 c 0
 400 373 392 439 382 494 c 0
 379 512 369 539 362 555 c 0
185 159 m 0
 200 159 216 172 230 187 c 1
 230 614 l 1
 223 595 210 579 198 555 c 0
 191 539 181 512 178 494 c 0
 168 439 160 373 160 296 c 0
 160 244 160 159 185 159 c 0
EndSplineSet
EndChar

StartChar: afii10087
Encoding: 1093 1093 127
Width: 401
Flags: W
LayerCount: 2
Fore
SplineSet
337 808 m 2
 367 808 l 1
 367 800 l 1
 357 783 353 769 349 749 c 0
 345 729 342 700 341 687 c 2
 341 678 l 1
 301 678 l 2
 280 678 258 668 250 635 c 2
 226 532 l 1
 355 0 l 1
 252 0 l 1
 175 316 l 1
 125 101 l 2
 124 95 123 89 123 83 c 0
 123 44 152 20 152 20 c 1
 152 0 l 1
 40 0 l 1
 40 20 l 1
 40 20 93 51 105 105 c 2
 164 361 l 1
 58 800 l 1
 161 800 l 1
 214 579 l 1
 229 641 l 2
 249 726 268 808 337 808 c 2
EndSplineSet
EndChar

StartChar: afii10088
Encoding: 1094 1094 128
Width: 404
Flags: W
LayerCount: 2
Fore
SplineSet
330 -133 m 0
 309 -133 276 -129 259 -114 c 0
 246 -102 240 -95 226 -83 c 0
 216 -74 209 -66 196 -66 c 0
 191 -66 188 -73 188 -83 c 2
 188 -134 l 1
 100 -134 l 1
 100 -75 l 2
 100 -51 121 -22 147 -22 c 0
 168 -22 183 -26 198 -35 c 0
 211 -43 225 -55 240 -68 c 0
 249 -75 257 -85 266 -93 c 0
 270 -96 274 -97 278 -97 c 0
 285 -97 289 -91 289 -80 c 2
 289 0 l 1
 50 0 l 1
 50 800 l 1
 150 800 l 1
 150 20 l 1
 210 20 l 1
 210 800 l 1
 310 800 l 1
 310 20 l 1
 384 20 l 1
 384 -60 l 2
 384 -103 354 -133 330 -133 c 0
EndSplineSet
EndChar

StartChar: afii10089
Encoding: 1095 1095 129
Width: 360
Flags: W
LayerCount: 2
Fore
SplineSet
310 0 m 1
 210 0 l 1
 210 339 l 1
 196 359 177 379 152 395 c 0
 120 414 74 419 50 419 c 1
 50 800 l 1
 150 800 l 1
 150 418 l 1
 162 412 l 2
 181 400 197 386 210 371 c 1
 210 800 l 1
 310 800 l 1
 310 0 l 1
EndSplineSet
EndChar

StartChar: afii10090
Encoding: 1096 1096 130
Width: 520
Flags: W
LayerCount: 2
Fore
SplineSet
50 0 m 1
 50 800 l 1
 150 800 l 1
 150 20 l 1
 210 20 l 1
 210 800 l 1
 310 800 l 1
 310 20 l 1
 370 20 l 1
 370 800 l 1
 470 800 l 1
 470 0 l 1
 50 0 l 1
EndSplineSet
EndChar

StartChar: afii10091
Encoding: 1097 1097 131
Width: 520
Flags: W
LayerCount: 2
Fore
SplineSet
325 -69 m 1
 265 -143 l 1
 256 -143 l 1
 195 -69 l 1
 195 -62 l 1
 246 0 l 1
 50 0 l 1
 50 800 l 1
 150 800 l 1
 150 20 l 1
 210 20 l 1
 210 800 l 1
 310 800 l 1
 310 20 l 1
 370 20 l 1
 370 800 l 1
 470 800 l 1
 470 0 l 1
 274 0 l 1
 325 -62 l 1
 325 -69 l 1
EndSplineSet
EndChar

StartChar: afii10092
Encoding: 1098 1098 132
Width: 394
Flags: W
LayerCount: 2
Fore
SplineSet
150 620 m 1
 50 620 l 1
 50 800 l 1
 344 800 l 1
 245 405 l 1
 254 387 268 373 286 363 c 0
 306 351 327 347 344 347 c 1
 344 0 l 1
 40 0 l 1
 235 780 l 1
 150 780 l 1
 150 620 l 1
244 371 m 1
 238 378 l 1
 149 20 l 1
 244 20 l 1
 244 371 l 1
EndSplineSet
EndChar

StartChar: afii10093
Encoding: 1099 1099 133
Width: 528
Flags: W
LayerCount: 2
Fore
SplineSet
310 0 m 1
 50 0 l 1
 50 800 l 1
 150 800 l 1
 150 463 l 1
 168 437 192 413 222 394 c 0
 253 375 289 360 310 360 c 1
 310 0 l 1
378 0 m 1
 378 800 l 1
 478 800 l 1
 478 0 l 1
 378 0 l 1
210 378 m 1
 186 394 166 413 150 432 c 1
 150 20 l 1
 210 20 l 1
 210 378 l 1
EndSplineSet
EndChar

StartChar: afii10094
Encoding: 1100 1100 134
Width: 360
Flags: W
LayerCount: 2
Fore
SplineSet
310 0 m 1
 50 0 l 1
 50 800 l 1
 150 800 l 1
 150 463 l 1
 168 437 192 413 222 394 c 0
 253 375 289 360 310 360 c 1
 310 0 l 1
210 378 m 1
 186 394 166 413 150 432 c 1
 150 20 l 1
 210 20 l 1
 210 378 l 1
EndSplineSet
EndChar

StartChar: afii10096
Encoding: 1102 1102 135
Width: 512
Flags: W
LayerCount: 2
Fore
SplineSet
150 0 m 1
 50 0 l 1
 50 800 l 1
 150 800 l 1
 150 402 l 1
 198 430 l 1
 198 512 221 581 249 640 c 0
 266 674 283 703 300 730 c 0
 318 760 337 788 342 808 c 1
 365 808 l 1
 364 797 363 787 364 768 c 0
 365 717 398 644 422 584 c 0
 447 524 467 449 467 374 c 0
 467 290 444 220 416 160 c 0
 399 126 382 97 365 70 c 0
 347 40 328 12 323 -8 c 1
 300 -8 l 1
 301 3 302 13 301 32 c 0
 300 83 267 156 243 216 c 0
 220 271 201 338 198 406 c 1
 150 379 l 1
 150 0 l 1
308 584 m 0
 298 614 289 647 285 667 c 1
 278 655 273 643 268 632 c 0
 264 620 261 595 261 573 c 0
 261 514 285 434 307 362 c 0
 320 314 342 262 357 216 c 0
 366 186 375 153 379 132 c 1
 386 145 392 157 397 168 c 0
 401 180 404 205 404 227 c 0
 404 286 380 366 358 438 c 0
 345 486 323 538 308 584 c 0
EndSplineSet
EndChar

StartChar: uniA657
Encoding: 42583 42583 136
Width: 520
Flags: W
LayerCount: 2
Fore
SplineSet
310 0 m 1
 210 0 l 1
 210 390 l 1
 242 390 277 403 312 422 c 0
 337 435 355 450 370 467 c 1
 370 491 l 1
 357 479 341 467 322 457 c 0
 283 436 244 423 210 423 c 1
 210 580 l 1
 247 591 274 604 312 628 c 0
 328 638 342 649 355 660 c 1
 150 660 l 1
 150 0 l 1
 50 0 l 1
 50 800 l 1
 150 800 l 1
 150 680 l 1
 370 680 l 1
 370 780 l 1
 310 780 l 1
 310 690 l 1
 210 690 l 1
 210 800 l 1
 470 800 l 1
 470 0 l 1
 370 0 l 1
 370 438 l 1
 357 426 341 414 322 404 c 2
 310 397 l 1
 310 0 l 1
322 612 m 0
 318 609 314 606 310 604 c 1
 310 474 l 1
 310 474 311 474 312 475 c 0
 337 488 355 503 370 520 c 1
 370 647 l 1
 355 634 340 623 322 612 c 0
EndSplineSet
EndChar

StartChar: sfthyphen
Encoding: 173 173 137
Width: 235
Flags: W
LayerCount: 2
Fore
SplineSet
200 380 m 1
 35 380 l 1
 35 420 l 1
 200 420 l 1
 200 380 l 1
EndSplineSet
EndChar

StartChar: uni0400
Encoding: 1024 1024 138
Width: 378
Flags: HW
LayerCount: 2
Fore
SplineSet
222 26 m 0
 202 7 176 -8 145 -8 c 0
 111 -8 80 11 67 42 c 0
 61 57 57 77 57 90 c 0
 57 112 69 135 98 135 c 0
 128 135 140 112 140 90 c 0
 140 65 121 48 98 48 c 0
 94 48 90 48 86 49 c 1
 91 38 99 29 110 22 c 1
 137 28 153 64 153 84 c 0
 153 128 126 176 110 228 c 0
 90 293 50 403 50 497 c 0
 50 626 92 808 192 808 c 0
 295 808 330 641 331 539 c 1
 221 539 l 1
 221 775 l 1
 215 785 205 790 191 790 c 0
 178 790 166 785 162 775 c 0
 160 762 157 689 157 644 c 0
 157 594 159 527 161 477 c 0
 161 466 162 455 163 444 c 1
 167 449 172 455 178 460 c 0
 193 473 221 482 245 482 c 0
 277 482 305 470 318 442 c 0
 328 421 331 399 331 371 c 1
 221 371 l 1
 221 430 l 2
 221 441 214 449 203 449 c 0
 198 449 193 448 189 446 c 0
 179 439 171 426 165 412 c 1
 170 320 181 243 181 161 c 0
 181 130 179 81 170 55 c 0
 163 33 148 20 135 12 c 1
 145 12 l 2
 169 12 188 24 197 34 c 0
 213 52 221 129 221 191 c 2
 221 312 l 1
 331 312 l 1
 331 230 317 116 222 26 c 0
252 903 m 5
 252 864 l 5
 245 864 l 5
 80 935 l 5
 80 980 l 5
 87 980 l 5
 252 903 l 5
EndSplineSet
EndChar

StartChar: uni040D
Encoding: 1037 1037 139
Width: 360
Flags: HW
LayerCount: 2
Fore
SplineSet
252 903 m 5
 252 864 l 5
 245 864 l 5
 80 935 l 5
 80 980 l 5
 87 980 l 5
 252 903 l 5
150 0 m 1
 50 0 l 1
 50 800 l 1
 150 800 l 1
 150 400 l 1
 157 406 165 413 173 421 c 0
 187 435 199 447 210 459 c 1
 210 800 l 1
 310 800 l 1
 310 0 l 1
 210 0 l 1
 210 429 l 1
 187 407 l 2
 173 394 161 383 150 374 c 1
 150 0 l 1
EndSplineSet
EndChar

StartChar: uni0450
Encoding: 1104 1104 140
Width: 378
Flags: HW
LayerCount: 2
Fore
SplineSet
222 26 m 0
 202 7 176 -8 145 -8 c 0
 111 -8 80 11 67 42 c 0
 61 57 57 77 57 90 c 0
 57 112 69 135 98 135 c 0
 128 135 140 112 140 90 c 0
 140 65 121 48 98 48 c 0
 94 48 90 48 86 49 c 1
 91 38 99 29 110 22 c 1
 137 28 153 64 153 84 c 0
 153 128 126 176 110 228 c 0
 90 293 50 403 50 497 c 0
 50 626 92 808 192 808 c 0
 295 808 330 641 331 539 c 1
 221 539 l 1
 221 775 l 1
 215 785 205 790 191 790 c 0
 178 790 166 785 162 775 c 0
 160 762 157 689 157 644 c 0
 157 594 159 527 161 477 c 0
 161 466 162 455 163 444 c 1
 167 449 172 455 178 460 c 0
 193 473 221 482 245 482 c 0
 277 482 305 470 318 442 c 0
 328 421 331 399 331 371 c 1
 221 371 l 1
 221 430 l 2
 221 441 214 449 203 449 c 0
 198 449 193 448 189 446 c 0
 179 439 171 426 165 412 c 1
 170 320 181 243 181 161 c 0
 181 130 179 81 170 55 c 0
 163 33 148 20 135 12 c 1
 145 12 l 2
 169 12 188 24 197 34 c 0
 213 52 221 129 221 191 c 2
 221 312 l 1
 331 312 l 1
 331 230 317 116 222 26 c 0
252 903 m 5
 252 864 l 5
 245 864 l 5
 80 935 l 5
 80 980 l 5
 87 980 l 5
 252 903 l 5
EndSplineSet
EndChar

StartChar: uni045D
Encoding: 1117 1117 141
Width: 360
Flags: HW
LayerCount: 2
Fore
SplineSet
252 903 m 5
 252 864 l 5
 245 864 l 5
 80 935 l 5
 80 980 l 5
 87 980 l 5
 252 903 l 5
150 0 m 1
 50 0 l 1
 50 800 l 1
 150 800 l 1
 150 400 l 1
 157 406 165 413 173 421 c 0
 187 435 199 447 210 459 c 1
 210 800 l 1
 310 800 l 1
 310 0 l 1
 210 0 l 1
 210 429 l 1
 187 407 l 2
 173 394 161 383 150 374 c 1
 150 0 l 1
EndSplineSet
EndChar

StartChar: uni0460
Encoding: 1120 1120 142
Width: 482
Flags: HW
LayerCount: 2
Fore
SplineSet
350 753 m 1
 403 808 l 1
 409 808 l 1
 428 734 442 603 442 484 c 0
 442 261 375 99 318 -8 c 1
 312 -8 l 1
 289 40 269 95 254 153 c 1
 236 120 195 47 170 -8 c 1
 164 -8 l 1
 77 129 40 283 40 482 c 0
 40 607 64 756 77 800 c 1
 173 800 l 1
 161 763 139 562 139 482 c 0
 139 323 167 209 209 114 c 1
 215 124 234 155 248 179 c 1
 224 283 212 399 212 516 c 0
 212 628 236 743 248 800 c 1
 342 800 l 1
 327 728 312 626 312 514 c 0
 312 371 332 241 358 140 c 1
 390 205 417 359 417 474 c 0
 417 589 382 682 350 753 c 1
EndSplineSet
EndChar

StartChar: uni0461
Encoding: 1121 1121 143
Width: 482
Flags: HW
LayerCount: 2
Fore
SplineSet
350 753 m 1
 403 808 l 1
 409 808 l 1
 428 734 442 603 442 484 c 0
 442 261 375 99 318 -8 c 1
 312 -8 l 1
 289 40 269 95 254 153 c 1
 236 120 195 47 170 -8 c 1
 164 -8 l 1
 77 129 40 283 40 482 c 0
 40 607 64 756 77 800 c 1
 173 800 l 1
 161 763 139 562 139 482 c 0
 139 323 167 209 209 114 c 1
 215 124 234 155 248 179 c 1
 224 283 212 399 212 516 c 0
 212 628 236 743 248 800 c 1
 342 800 l 1
 327 728 312 626 312 514 c 0
 312 371 332 241 358 140 c 1
 390 205 417 359 417 474 c 0
 417 589 382 682 350 753 c 1
EndSplineSet
EndChar

StartChar: uni0462
Encoding: 1122 1122 144
Width: 525
Flags: HW
LayerCount: 2
Fore
SplineSet
135 480 m 1
 35 480 l 1
 35 730 l 1
 195 730 l 1
 195 800 l 1
 295 800 l 1
 295 730 l 1
 455 730 l 1
 455 570 l 1
 355 570 l 1
 355 710 l 1
 295 710 l 1
 295 468 l 1
 309 448 327 432 354 413 c 0
 390 387 444 370 475 370 c 1
 475 0 l 1
 195 0 l 1
 195 710 l 1
 135 710 l 1
 135 480 l 1
342 397 m 0
 323 411 307 424 295 437 c 1
 295 20 l 1
 375 20 l 1
 375 377 l 1
 363 383 352 390 342 397 c 0
EndSplineSet
EndChar

StartChar: uni0463
Encoding: 1123 1123 145
Width: 525
Flags: HW
LayerCount: 2
Fore
SplineSet
135 480 m 1
 35 480 l 1
 35 730 l 1
 195 730 l 1
 195 800 l 1
 295 800 l 1
 295 730 l 1
 455 730 l 1
 455 570 l 1
 355 570 l 1
 355 710 l 1
 295 710 l 1
 295 468 l 1
 309 448 327 432 354 413 c 0
 390 387 444 370 475 370 c 1
 475 0 l 1
 195 0 l 1
 195 710 l 1
 135 710 l 1
 135 480 l 1
342 397 m 0
 323 411 307 424 295 437 c 1
 295 20 l 1
 375 20 l 1
 375 377 l 1
 363 383 352 390 342 397 c 0
EndSplineSet
EndChar

StartChar: uni0464
Encoding: 1124 1124 146
Width: 373
Flags: HW
LayerCount: 2
Fore
SplineSet
345 254 m 0
 345 163 268 87 175 87 c 0
 82 87 8 163 8 254 c 0
 8 349 82 424 175 424 c 0
 268 424 345 349 345 254 c 0
93 150 m 1
 116 131 145 120 175 120 c 0
 250 120 311 181 311 254 c 0
 311 287 300 314 282 338 c 1
 93 150 l 1
257 361 m 1
 236 379 207 390 175 390 c 0
 102 390 41 329 41 254 c 0
 41 224 52 197 68 173 c 1
 257 361 l 1
EndSplineSet
EndChar

StartChar: uni0465
Encoding: 1125 1125 147
Width: 373
Flags: HW
LayerCount: 2
Fore
SplineSet
345 254 m 0
 345 163 268 87 175 87 c 0
 82 87 8 163 8 254 c 0
 8 349 82 424 175 424 c 0
 268 424 345 349 345 254 c 0
93 150 m 1
 116 131 145 120 175 120 c 0
 250 120 311 181 311 254 c 0
 311 287 300 314 282 338 c 1
 93 150 l 1
257 361 m 1
 236 379 207 390 175 390 c 0
 102 390 41 329 41 254 c 0
 41 224 52 197 68 173 c 1
 257 361 l 1
EndSplineSet
EndChar

StartChar: uni0466
Encoding: 1126 1126 148
Width: 544
Flags: HW
LayerCount: 2
Fore
SplineSet
499 0 m 1
 394 0 l 1
 394 194 l 2
 394 280 379 355 356 424 c 1
 347 419 339 411 333 403 c 0
 325 392 321 356 321 326 c 2
 321 0 l 1
 216 0 l 1
 216 326 l 2
 216 356 212 392 204 403 c 0
 194 416 181 427 167 430 c 1
 156 394 150 319 150 231 c 2
 150 0 l 1
 45 0 l 1
 45 157 l 2
 45 206 57 274 69 312 c 0
 78 341 105 384 111 393 c 0
 120 407 134 423 154 456 c 0
 171 484 187 514 204 553 c 0
 232 620 244 680 246 757 c 0
 245 771 244 786 244 800 c 1
 349 800 l 1
 349 724 370 646 411 558 c 0
 461 452 499 338 499 194 c 2
 499 0 l 1
301 558 m 0
 282 598 268 637 259 674 c 1
 252 630 241 589 222 545 c 0
 206 508 191 476 175 448 c 1
 192 443 208 431 220 415 c 0
 228 405 232 379 234 350 c 0
 237 339 242 329 250 326 c 2
 287 326 l 2
 295 329 299 339 302 350 c 0
 305 379 309 405 317 415 c 0
 325 427 337 436 349 443 c 1
 335 483 318 521 301 558 c 0
EndSplineSet
EndChar

StartChar: uni0467
Encoding: 1127 1127 149
Width: 544
Flags: HW
LayerCount: 2
Fore
SplineSet
499 0 m 1
 394 0 l 1
 394 194 l 2
 394 280 379 355 356 424 c 1
 347 419 339 411 333 403 c 0
 325 392 321 356 321 326 c 2
 321 0 l 1
 216 0 l 1
 216 326 l 2
 216 356 212 392 204 403 c 0
 194 416 181 427 167 430 c 1
 156 394 150 319 150 231 c 2
 150 0 l 1
 45 0 l 1
 45 157 l 2
 45 206 57 274 69 312 c 0
 78 341 105 384 111 393 c 0
 120 407 134 423 154 456 c 0
 171 484 187 514 204 553 c 0
 232 620 244 680 246 757 c 0
 245 771 244 786 244 800 c 1
 349 800 l 1
 349 724 370 646 411 558 c 0
 461 452 499 338 499 194 c 2
 499 0 l 1
301 558 m 0
 282 598 268 637 259 674 c 1
 252 630 241 589 222 545 c 0
 206 508 191 476 175 448 c 1
 192 443 208 431 220 415 c 0
 228 405 232 379 234 350 c 0
 237 339 242 329 250 326 c 2
 287 326 l 2
 295 329 299 339 302 350 c 0
 305 379 309 405 317 415 c 0
 325 427 337 436 349 443 c 1
 335 483 318 521 301 558 c 0
EndSplineSet
EndChar

StartChar: uni0468
Encoding: 1128 1128 150
Width: 373
Flags: HW
LayerCount: 2
Fore
SplineSet
345 254 m 0
 345 163 268 87 175 87 c 0
 82 87 8 163 8 254 c 0
 8 349 82 424 175 424 c 0
 268 424 345 349 345 254 c 0
93 150 m 1
 116 131 145 120 175 120 c 0
 250 120 311 181 311 254 c 0
 311 287 300 314 282 338 c 1
 93 150 l 1
257 361 m 1
 236 379 207 390 175 390 c 0
 102 390 41 329 41 254 c 0
 41 224 52 197 68 173 c 1
 257 361 l 1
EndSplineSet
EndChar

StartChar: uni0469
Encoding: 1129 1129 151
Width: 373
Flags: HW
LayerCount: 2
Fore
SplineSet
345 254 m 0
 345 163 268 87 175 87 c 0
 82 87 8 163 8 254 c 0
 8 349 82 424 175 424 c 0
 268 424 345 349 345 254 c 0
93 150 m 1
 116 131 145 120 175 120 c 0
 250 120 311 181 311 254 c 0
 311 287 300 314 282 338 c 1
 93 150 l 1
257 361 m 1
 236 379 207 390 175 390 c 0
 102 390 41 329 41 254 c 0
 41 224 52 197 68 173 c 1
 257 361 l 1
EndSplineSet
EndChar

StartChar: uni046A
Encoding: 1130 1130 152
Width: 373
Flags: HW
LayerCount: 2
Fore
SplineSet
345 254 m 0
 345 163 268 87 175 87 c 0
 82 87 8 163 8 254 c 0
 8 349 82 424 175 424 c 0
 268 424 345 349 345 254 c 0
93 150 m 1
 116 131 145 120 175 120 c 0
 250 120 311 181 311 254 c 0
 311 287 300 314 282 338 c 1
 93 150 l 1
257 361 m 1
 236 379 207 390 175 390 c 0
 102 390 41 329 41 254 c 0
 41 224 52 197 68 173 c 1
 257 361 l 1
EndSplineSet
EndChar

StartChar: uni046B
Encoding: 1131 1131 153
Width: 373
Flags: HW
LayerCount: 2
Fore
SplineSet
345 254 m 0
 345 163 268 87 175 87 c 0
 82 87 8 163 8 254 c 0
 8 349 82 424 175 424 c 0
 268 424 345 349 345 254 c 0
93 150 m 1
 116 131 145 120 175 120 c 0
 250 120 311 181 311 254 c 0
 311 287 300 314 282 338 c 1
 93 150 l 1
257 361 m 1
 236 379 207 390 175 390 c 0
 102 390 41 329 41 254 c 0
 41 224 52 197 68 173 c 1
 257 361 l 1
EndSplineSet
EndChar

StartChar: uni046C
Encoding: 1132 1132 154
Width: 373
Flags: HW
LayerCount: 2
Fore
SplineSet
345 254 m 0
 345 163 268 87 175 87 c 0
 82 87 8 163 8 254 c 0
 8 349 82 424 175 424 c 0
 268 424 345 349 345 254 c 0
93 150 m 1
 116 131 145 120 175 120 c 0
 250 120 311 181 311 254 c 0
 311 287 300 314 282 338 c 1
 93 150 l 1
257 361 m 1
 236 379 207 390 175 390 c 0
 102 390 41 329 41 254 c 0
 41 224 52 197 68 173 c 1
 257 361 l 1
EndSplineSet
EndChar

StartChar: uni046D
Encoding: 1133 1133 155
Width: 373
Flags: HW
LayerCount: 2
Fore
SplineSet
345 254 m 0
 345 163 268 87 175 87 c 0
 82 87 8 163 8 254 c 0
 8 349 82 424 175 424 c 0
 268 424 345 349 345 254 c 0
93 150 m 1
 116 131 145 120 175 120 c 0
 250 120 311 181 311 254 c 0
 311 287 300 314 282 338 c 1
 93 150 l 1
257 361 m 1
 236 379 207 390 175 390 c 0
 102 390 41 329 41 254 c 0
 41 224 52 197 68 173 c 1
 257 361 l 1
EndSplineSet
EndChar

StartChar: uni046E
Encoding: 1134 1134 156
Width: 374
Flags: HW
LayerCount: 2
Fore
SplineSet
324 -6 m 1
 229 -6 l 1
 229 41 l 2
 229 47 226 52 220 52 c 0
 216 52 215 48 212 44 c 0
 205 35 194 19 184 7 c 0
 175 -3 163 -8 139 -8 c 0
 82 -8 50 51 50 115 c 0
 50 176 95 226 145 226 c 0
 169 226 185 222 209 213 c 0
 218 213 219 225 219 242 c 2
 219 477 l 1
 214 488 203 492 190 492 c 0
 176 492 166 487 160 477 c 1
 160 283 l 1
 50 283 l 1
 50 307 50 339 53 365 c 0
 64 457 109 510 189 510 c 2
 197 510 l 1
 211 517 219 529 219 546 c 2
 219 775 l 1
 214 786 203 790 190 790 c 0
 176 790 166 785 160 775 c 1
 160 567 l 1
 50 567 l 1
 50 600 l 2
 50 618 50 637 52 653 c 0
 62 731 98 791 160 805 c 1
 117 916 l 1
 118 921 l 1
 172 921 l 1
 205 836 l 1
 208 846 211 855 215 863 c 0
 225 883 243 908 269 913 c 0
 271 915 274 914 280 915 c 0
 303 915 321 897 321 874 c 0
 321 851 303 833 280 833 c 0
 263 833 249 843 242 857 c 1
 239 855 235 853 232 850 c 0
 225 837 221 819 217 805 c 1
 277 791 324 736 324 661 c 0
 324 578 296 520 231 503 c 1
 284 485 324 431 324 333 c 0
 324 239 291 193 234 174 c 0
 232 173 231 173 229 174 c 0
 217 183 187 201 172 201 c 0
 165 199 160 192 160 182 c 2
 160 37 l 2
 160 26 164 21 170 21 c 1
 172 25 189 45 202 64 c 0
 218 88 237 108 267 108 c 0
 310 108 324 79 324 44 c 2
 324 -6 l 1
EndSplineSet
EndChar

StartChar: uni046F
Encoding: 1135 1135 157
Width: 374
Flags: HW
LayerCount: 2
Fore
SplineSet
324 -6 m 1
 229 -6 l 1
 229 41 l 2
 229 47 226 52 220 52 c 0
 216 52 215 48 212 44 c 0
 205 35 194 19 184 7 c 0
 175 -3 163 -8 139 -8 c 0
 82 -8 50 51 50 115 c 0
 50 176 95 226 145 226 c 0
 169 226 185 222 209 213 c 0
 218 213 219 225 219 242 c 2
 219 477 l 1
 214 488 203 492 190 492 c 0
 176 492 166 487 160 477 c 1
 160 283 l 1
 50 283 l 1
 50 307 50 339 53 365 c 0
 64 457 109 510 189 510 c 2
 197 510 l 1
 211 517 219 529 219 546 c 2
 219 775 l 1
 214 786 203 790 190 790 c 0
 176 790 166 785 160 775 c 1
 160 567 l 1
 50 567 l 1
 50 600 l 2
 50 618 50 637 52 653 c 0
 62 731 98 791 160 805 c 1
 117 916 l 1
 118 921 l 1
 172 921 l 1
 205 836 l 1
 208 846 211 855 215 863 c 0
 225 883 243 908 269 913 c 0
 271 915 274 914 280 915 c 0
 303 915 321 897 321 874 c 0
 321 851 303 833 280 833 c 0
 263 833 249 843 242 857 c 1
 239 855 235 853 232 850 c 0
 225 837 221 819 217 805 c 1
 277 791 324 736 324 661 c 0
 324 578 296 520 231 503 c 1
 284 485 324 431 324 333 c 0
 324 239 291 193 234 174 c 0
 232 173 231 173 229 174 c 0
 217 183 187 201 172 201 c 0
 165 199 160 192 160 182 c 2
 160 37 l 2
 160 26 164 21 170 21 c 1
 172 25 189 45 202 64 c 0
 218 88 237 108 267 108 c 0
 310 108 324 79 324 44 c 2
 324 -6 l 1
EndSplineSet
EndChar

StartChar: uni0470
Encoding: 1136 1136 158
Width: 484
Flags: HW
LayerCount: 2
Fore
SplineSet
295 900 m 1
 285 788 263 343 251 20 c 1
 278 20 l 1
 283 154 298 525 306 654 c 0
 311 730 335 775 385 798 c 0
 408 808 444 809 459 809 c 1
 459 802 l 1
 444 775 437 731 437 698 c 0
 437 686 437 675 438 667 c 2
 438 660 l 1
 420 665 405 668 393 668 c 0
 367 668 354 656 349 634 c 0
 335 565 307 174 298 0 c 1
 254 0 l 1
 311 -68 l 1
 311 -75 l 1
 246 -154 l 1
 237 -154 l 1
 171 -75 l 1
 171 -68 l 1
 227 0 l 1
 115 0 l 1
 103 258 86 639 45 800 c 1
 157 800 l 1
 184 652 199 274 207 20 c 1
 231 20 l 1
 231 322 202 801 187 900 c 1
 295 900 l 1
EndSplineSet
EndChar

StartChar: uni0471
Encoding: 1137 1137 159
Width: 484
Flags: HW
LayerCount: 2
Fore
SplineSet
295 900 m 1
 285 788 263 343 251 20 c 1
 278 20 l 1
 283 154 298 525 306 654 c 0
 311 730 335 775 385 798 c 0
 408 808 444 809 459 809 c 1
 459 802 l 1
 444 775 437 731 437 698 c 0
 437 686 437 675 438 667 c 2
 438 660 l 1
 420 665 405 668 393 668 c 0
 367 668 354 656 349 634 c 0
 335 565 307 174 298 0 c 1
 254 0 l 1
 311 -68 l 1
 311 -75 l 1
 246 -154 l 1
 237 -154 l 1
 171 -75 l 1
 171 -68 l 1
 227 0 l 1
 115 0 l 1
 103 258 86 639 45 800 c 1
 157 800 l 1
 184 652 199 274 207 20 c 1
 231 20 l 1
 231 322 202 801 187 900 c 1
 295 900 l 1
EndSplineSet
EndChar

StartChar: uni0472
Encoding: 1138 1138 160
Width: 495
Flags: HW
LayerCount: 2
Fore
SplineSet
30 0 m 1
 30 220 l 1
 159 220 l 1
 156 231 153 242 150 254 c 0
 135 308 122 381 122 442 c 0
 122 507 131 553 147 608 c 0
 158 645 174 686 189 710 c 0
 212 746 228 781 238 808 c 1
 253 808 l 1
 256 783 255 768 261 745 c 0
 282 664 305 610 328 526 c 0
 343 472 356 399 356 338 c 0
 356 292 351 256 343 220 c 1
 465 220 l 1
 465 0 l 1
 365 0 l 1
 365 200 l 1
 338 200 l 1
 336 190 334 181 331 172 c 0
 320 135 304 94 289 70 c 0
 266 34 250 -1 240 -28 c 1
 225 -28 l 1
 222 -3 223 12 217 35 c 0
 201 97 183 143 165 200 c 1
 130 200 l 1
 130 0 l 1
 30 0 l 1
208 399 m 0
 231 328 251 287 274 220 c 1
 308 220 l 1
 303 267 288 325 270 381 c 0
 246 453 226 494 202 564 c 0
 193 589 184 619 180 645 c 1
 175 631 171 616 168 603 c 0
 166 553 183 473 208 399 c 0
281 200 m 1
 288 178 294 156 297 134 c 1
 303 149 307 163 310 177 c 2
 310 200 l 1
 281 200 l 1
EndSplineSet
EndChar

StartChar: uni0473
Encoding: 1139 1139 161
Width: 495
Flags: HW
LayerCount: 2
Fore
SplineSet
30 0 m 1
 30 220 l 1
 159 220 l 1
 156 231 153 242 150 254 c 0
 135 308 122 381 122 442 c 0
 122 507 131 553 147 608 c 0
 158 645 174 686 189 710 c 0
 212 746 228 781 238 808 c 1
 253 808 l 1
 256 783 255 768 261 745 c 0
 282 664 305 610 328 526 c 0
 343 472 356 399 356 338 c 0
 356 292 351 256 343 220 c 1
 465 220 l 1
 465 0 l 1
 365 0 l 1
 365 200 l 1
 338 200 l 1
 336 190 334 181 331 172 c 0
 320 135 304 94 289 70 c 0
 266 34 250 -1 240 -28 c 1
 225 -28 l 1
 222 -3 223 12 217 35 c 0
 201 97 183 143 165 200 c 1
 130 200 l 1
 130 0 l 1
 30 0 l 1
208 399 m 0
 231 328 251 287 274 220 c 1
 308 220 l 1
 303 267 288 325 270 381 c 0
 246 453 226 494 202 564 c 0
 193 589 184 619 180 645 c 1
 175 631 171 616 168 603 c 0
 166 553 183 473 208 399 c 0
281 200 m 1
 288 178 294 156 297 134 c 1
 303 149 307 163 310 177 c 2
 310 200 l 1
 281 200 l 1
EndSplineSet
EndChar

StartChar: uni0474
Encoding: 1140 1140 162
Width: 393
Flags: HW
LayerCount: 2
Fore
SplineSet
336 808 m 2
 368 808 l 1
 368 800 l 1
 353 777 348 746 348 718 c 0
 348 706 349 695 350 687 c 2
 350 678 l 1
 283 678 l 2
 262 678 248 663 247 635 c 2
 216 0 l 1
 105 0 l 1
 45 800 l 1
 145 800 l 1
 199 73 l 1
 227 641 l 2
 231 728 259 808 336 808 c 2
EndSplineSet
EndChar

StartChar: uni0475
Encoding: 1141 1141 163
Width: 393
Flags: HW
LayerCount: 2
Fore
SplineSet
336 808 m 2
 368 808 l 1
 368 800 l 1
 353 777 348 746 348 718 c 0
 348 706 349 695 350 687 c 2
 350 678 l 1
 283 678 l 2
 262 678 248 663 247 635 c 2
 216 0 l 1
 105 0 l 1
 45 800 l 1
 145 800 l 1
 199 73 l 1
 227 641 l 2
 231 728 259 808 336 808 c 2
EndSplineSet
EndChar

StartChar: uni0476
Encoding: 1142 1142 164
Width: 393
Flags: HW
LayerCount: 2
Fore
SplineSet
368 800 m 1
 353 777 348 746 348 718 c 0
 348 706 349 695 350 687 c 2
 350 678 l 1
 283 678 l 2
 262 678 248 663 247 635 c 2
 216 0 l 1
 105 0 l 1
 45 800 l 1
 145 800 l 1
 199 73 l 1
 227 641 l 2
 231 728 259 808 336 808 c 2
 368 808 l 1
 368 800 l 1
269 868 m 1
 233 868 l 1
 146 984 l 1
 146 991 l 1
 188 991 l 1
 269 875 l 1
 269 868 l 1
179 868 m 1
 143 868 l 1
 56 984 l 1
 56 991 l 1
 98 991 l 1
 179 875 l 1
 179 868 l 1
EndSplineSet
EndChar

StartChar: uni0477
Encoding: 1143 1143 165
Width: 393
Flags: HW
LayerCount: 2
Fore
SplineSet
368 800 m 1
 353 777 348 746 348 718 c 0
 348 706 349 695 350 687 c 2
 350 678 l 1
 283 678 l 2
 262 678 248 663 247 635 c 2
 216 0 l 1
 105 0 l 1
 45 800 l 1
 145 800 l 1
 199 73 l 1
 227 641 l 2
 231 728 259 808 336 808 c 2
 368 808 l 1
 368 800 l 1
269 868 m 1
 233 868 l 1
 146 984 l 1
 146 991 l 1
 188 991 l 1
 269 875 l 1
 269 868 l 1
179 868 m 1
 143 868 l 1
 56 984 l 1
 56 991 l 1
 98 991 l 1
 179 875 l 1
 179 868 l 1
EndSplineSet
EndChar

StartChar: uni0478
Encoding: 1144 1144 166
Width: 672
Flags: HW
LayerCount: 2
Fore
SplineSet
314 374 m 0
 314 290 291 220 263 160 c 0
 246 126 229 97 212 70 c 0
 194 40 175 12 170 -8 c 1
 147 -8 l 1
 148 3 149 13 148 32 c 0
 147 83 114 156 90 216 c 0
 65 276 45 351 45 426 c 0
 45 510 68 580 96 640 c 0
 113 674 130 703 147 730 c 0
 165 760 184 788 189 808 c 1
 212 808 l 1
 211 797 210 787 211 768 c 0
 212 717 245 644 269 584 c 0
 294 524 314 449 314 374 c 0
647 800 m 1
 640 784 633 769 629 749 c 0
 625 729 622 700 621 687 c 2
 621 678 l 1
 584 678 l 2
 563 678 541 669 538 621 c 2
 519 328 l 1
 517 94 l 2
 516 55 534 22 576 18 c 1
 576 0 l 1
 414 0 l 1
 414 18 l 1
 458 21 496 50 497 95 c 2
 498 291 l 1
 404 291 l 1
 348 800 l 1
 453 800 l 1
 500 368 l 1
 517 627 l 2
 525 754 548 808 601 808 c 2
 647 808 l 1
 647 800 l 1
155 584 m 0
 145 614 137 647 132 667 c 1
 125 655 120 643 115 632 c 0
 111 620 108 595 108 573 c 0
 108 514 132 434 154 362 c 0
 167 314 189 262 204 216 c 0
 213 186 222 153 226 132 c 1
 233 145 239 157 244 168 c 0
 248 180 251 205 251 227 c 0
 251 286 227 366 205 438 c 0
 192 486 170 538 155 584 c 0
EndSplineSet
EndChar

StartChar: uni0479
Encoding: 1145 1145 167
Width: 672
Flags: HW
LayerCount: 2
Fore
SplineSet
314 374 m 0
 314 290 291 220 263 160 c 0
 246 126 229 97 212 70 c 0
 194 40 175 12 170 -8 c 1
 147 -8 l 1
 148 3 149 13 148 32 c 0
 147 83 114 156 90 216 c 0
 65 276 45 351 45 426 c 0
 45 510 68 580 96 640 c 0
 113 674 130 703 147 730 c 0
 165 760 184 788 189 808 c 1
 212 808 l 1
 211 797 210 787 211 768 c 0
 212 717 245 644 269 584 c 0
 294 524 314 449 314 374 c 0
647 800 m 1
 640 784 633 769 629 749 c 0
 625 729 622 700 621 687 c 2
 621 678 l 1
 584 678 l 2
 563 678 541 669 538 621 c 2
 519 328 l 1
 517 94 l 2
 516 55 534 22 576 18 c 1
 576 0 l 1
 414 0 l 1
 414 18 l 1
 458 21 496 50 497 95 c 2
 498 291 l 1
 404 291 l 1
 348 800 l 1
 453 800 l 1
 500 368 l 1
 517 627 l 2
 525 754 548 808 601 808 c 2
 647 808 l 1
 647 800 l 1
155 584 m 0
 145 614 137 647 132 667 c 1
 125 655 120 643 115 632 c 0
 111 620 108 595 108 573 c 0
 108 514 132 434 154 362 c 0
 167 314 189 262 204 216 c 0
 213 186 222 153 226 132 c 1
 233 145 239 157 244 168 c 0
 248 180 251 205 251 227 c 0
 251 286 227 366 205 438 c 0
 192 486 170 538 155 584 c 0
EndSplineSet
EndChar

StartChar: uni047A
Encoding: 1146 1146 168
Width: 518
Flags: HW
LayerCount: 2
Fore
SplineSet
259 818 m 0
 273 818 286 812 295 802 c 1
 304 806 314 808 326 808 c 0
 395 808 429 757 442 712 c 0
 462 644 468 490 468 400 c 0
 468 310 462 156 442 88 c 0
 429 43 395 -8 326 -8 c 0
 314 -8 305 -6 296 -2 c 1
 286 -12 273 -18 259 -18 c 0
 245 -18 231 -12 222 -2 c 1
 213 -6 203 -8 192 -8 c 0
 123 -8 89 43 76 88 c 0
 56 156 50 310 50 400 c 0
 50 490 56 644 76 712 c 0
 89 757 123 808 192 808 c 0
 203 808 213 806 222 802 c 1
 232 812 245 818 259 818 c 0
259 85 m 0
 287 85 311 61 311 33 c 0
 311 26 309 19 306 12 c 1
 312 10 317 10 321 10 c 0
 335 10 359 20 359 57 c 2
 359 743 l 2
 359 780 335 790 321 790 c 0
 317 790 312 789 306 787 c 1
 309 781 311 773 311 766 c 0
 311 738 287 715 259 715 c 0
 231 715 207 738 207 766 c 0
 207 773 208 781 211 787 c 1
 206 789 201 790 197 790 c 0
 183 790 159 780 159 743 c 2
 159 57 l 2
 159 20 183 10 197 10 c 0
 201 10 206 10 211 12 c 1
 208 19 207 26 207 33 c 0
 207 61 231 85 259 85 c 0
EndSplineSet
EndChar

StartChar: uni047B
Encoding: 1147 1147 169
Width: 518
Flags: HW
LayerCount: 2
Fore
SplineSet
259 818 m 0
 273 818 286 812 295 802 c 1
 304 806 314 808 326 808 c 0
 395 808 429 757 442 712 c 0
 462 644 468 490 468 400 c 0
 468 310 462 156 442 88 c 0
 429 43 395 -8 326 -8 c 0
 314 -8 305 -6 296 -2 c 1
 286 -12 273 -18 259 -18 c 0
 245 -18 231 -12 222 -2 c 1
 213 -6 203 -8 192 -8 c 0
 123 -8 89 43 76 88 c 0
 56 156 50 310 50 400 c 0
 50 490 56 644 76 712 c 0
 89 757 123 808 192 808 c 0
 203 808 213 806 222 802 c 1
 232 812 245 818 259 818 c 0
259 85 m 0
 287 85 311 61 311 33 c 0
 311 26 309 19 306 12 c 1
 312 10 317 10 321 10 c 0
 335 10 359 20 359 57 c 2
 359 743 l 2
 359 780 335 790 321 790 c 0
 317 790 312 789 306 787 c 1
 309 781 311 773 311 766 c 0
 311 738 287 715 259 715 c 0
 231 715 207 738 207 766 c 0
 207 773 208 781 211 787 c 1
 206 789 201 790 197 790 c 0
 183 790 159 780 159 743 c 2
 159 57 l 2
 159 20 183 10 197 10 c 0
 201 10 206 10 211 12 c 1
 208 19 207 26 207 33 c 0
 207 61 231 85 259 85 c 0
EndSplineSet
EndChar

StartChar: uni047C
Encoding: 1148 1148 170
Width: 554
Flags: HW
LayerCount: 2
Fore
SplineSet
340 227 m 0
 340 190 321 160 287 155 c 1
 290 116 304 66 325 40 c 0
 331 32 337 30 348 30 c 0
 373 30 395 72 395 136 c 2
 395 743 l 2
 395 780 371 790 357 790 c 0
 345 790 320 782 312 758 c 1
 316 760 321 761 326 761 c 0
 350 761 370 735 370 711 c 0
 370 687 358 655 326 655 c 0
 295 655 283 687 283 711 c 0
 283 768 309 808 362 808 c 0
 431 808 465 757 478 712 c 0
 498 644 504 498 504 410 c 0
 504 313 493 160 475 88 c 0
 463 39 425 -8 379 -8 c 0
 349 -8 331 3 311 25 c 0
 295 42 284 70 277 100 c 1
 270 70 258 42 243 25 c 0
 223 3 205 -8 175 -8 c 0
 129 -8 91 39 79 88 c 0
 61 160 50 313 50 410 c 0
 50 498 56 644 76 712 c 0
 89 757 123 808 192 808 c 0
 245 808 271 768 271 711 c 0
 271 687 259 655 228 655 c 0
 196 655 184 687 184 711 c 0
 184 735 204 761 228 761 c 0
 232 761 237 760 241 758 c 1
 233 782 209 790 197 790 c 0
 183 790 159 780 159 743 c 2
 159 136 l 2
 159 72 181 30 206 30 c 0
 217 30 223 32 229 40 c 0
 249 66 263 116 267 155 c 1
 233 160 214 190 214 227 c 0
 214 263 233 294 267 299 c 1
 263 421 234 520 211 562 c 1
 215 570 l 1
 231 566 249 563 277 563 c 0
 305 563 323 566 339 570 c 1
 343 562 l 1
 320 520 290 421 286 299 c 1
 320 294 340 263 340 227 c 0
123 846 m 1
 121 850 117 859 117 868 c 0
 117 881 129 905 139 919 c 0
 145 928 151 936 161 941 c 0
 211 967 266 981 312 987 c 0
 319 988 328 988 333 984 c 0
 386 943 464 866 496 845 c 0
 499 839 499 833 498 827 c 1
 427 827 l 1
 386 852 346 910 297 942 c 0
 285 946 251 948 234 945 c 0
 220 943 203 936 193 926 c 0
 187 917 183 908 182 898 c 0
 181 885 184 867 186 859 c 2
 186 853 l 1
 123 846 l 1
297 825 m 1
 302 834 305 843 305 855 c 0
 305 872 289 892 268 892 c 0
 246 892 234 874 234 858 c 0
 234 844 240 831 243 825 c 1
 231 821 l 1
 219 831 205 850 205 875 c 0
 205 902 229 930 264 930 c 0
 301 930 333 900 333 870 c 0
 333 850 317 828 309 821 c 1
 297 825 l 1
EndSplineSet
EndChar

StartChar: uni047D
Encoding: 1149 1149 171
Width: 554
Flags: HW
LayerCount: 2
Fore
SplineSet
340 227 m 0
 340 190 321 160 287 155 c 1
 290 116 304 66 325 40 c 0
 331 32 337 30 348 30 c 0
 373 30 395 72 395 136 c 2
 395 743 l 2
 395 780 371 790 357 790 c 0
 345 790 320 782 312 758 c 1
 316 760 321 761 326 761 c 0
 350 761 370 735 370 711 c 0
 370 687 358 655 326 655 c 0
 295 655 283 687 283 711 c 0
 283 768 309 808 362 808 c 0
 431 808 465 757 478 712 c 0
 498 644 504 498 504 410 c 0
 504 313 493 160 475 88 c 0
 463 39 425 -8 379 -8 c 0
 349 -8 331 3 311 25 c 0
 295 42 284 70 277 100 c 1
 270 70 258 42 243 25 c 0
 223 3 205 -8 175 -8 c 0
 129 -8 91 39 79 88 c 0
 61 160 50 313 50 410 c 0
 50 498 56 644 76 712 c 0
 89 757 123 808 192 808 c 0
 245 808 271 768 271 711 c 0
 271 687 259 655 228 655 c 0
 196 655 184 687 184 711 c 0
 184 735 204 761 228 761 c 0
 232 761 237 760 241 758 c 1
 233 782 209 790 197 790 c 0
 183 790 159 780 159 743 c 2
 159 136 l 2
 159 72 181 30 206 30 c 0
 217 30 223 32 229 40 c 0
 249 66 263 116 267 155 c 1
 233 160 214 190 214 227 c 0
 214 263 233 294 267 299 c 1
 263 421 234 520 211 562 c 1
 215 570 l 1
 231 566 249 563 277 563 c 0
 305 563 323 566 339 570 c 1
 343 562 l 1
 320 520 290 421 286 299 c 1
 320 294 340 263 340 227 c 0
123 846 m 1
 121 850 117 859 117 868 c 0
 117 881 129 905 139 919 c 0
 145 928 151 936 161 941 c 0
 211 967 266 981 312 987 c 0
 319 988 328 988 333 984 c 0
 386 943 464 866 496 845 c 0
 499 839 499 833 498 827 c 1
 427 827 l 1
 386 852 346 910 297 942 c 0
 285 946 251 948 234 945 c 0
 220 943 203 936 193 926 c 0
 187 917 183 908 182 898 c 0
 181 885 184 867 186 859 c 2
 186 853 l 1
 123 846 l 1
297 825 m 1
 302 834 305 843 305 855 c 0
 305 872 289 892 268 892 c 0
 246 892 234 874 234 858 c 0
 234 844 240 831 243 825 c 1
 231 821 l 1
 219 831 205 850 205 875 c 0
 205 902 229 930 264 930 c 0
 301 930 333 900 333 870 c 0
 333 850 317 828 309 821 c 1
 297 825 l 1
EndSplineSet
EndChar

StartChar: uni047E
Encoding: 1150 1150 172
Width: 554
Flags: HW
LayerCount: 2
Fore
SplineSet
340 227 m 0
 340 190 321 160 287 155 c 1
 290 116 304 66 325 40 c 0
 331 32 337 30 348 30 c 0
 373 30 395 72 395 136 c 2
 395 743 l 2
 395 780 371 790 357 790 c 0
 345 790 320 782 312 758 c 1
 316 760 321 761 326 761 c 0
 350 761 370 735 370 711 c 0
 370 687 358 655 326 655 c 0
 295 655 283 687 283 711 c 2
 283 714 l 2
 284 769 310 808 362 808 c 0
 431 808 465 757 478 712 c 0
 498 644 504 498 504 410 c 0
 504 313 493 160 475 88 c 0
 463 39 425 -8 379 -8 c 0
 349 -8 331 3 311 25 c 0
 295 42 284 70 277 100 c 1
 270 70 258 42 243 25 c 0
 223 3 205 -8 175 -8 c 0
 129 -8 91 39 79 88 c 0
 61 160 50 313 50 410 c 0
 50 498 56 644 76 712 c 0
 89 757 123 808 192 808 c 0
 245 808 271 768 271 711 c 0
 271 687 259 655 228 655 c 0
 196 655 184 687 184 711 c 0
 184 735 204 761 228 761 c 0
 232 761 237 760 241 758 c 1
 233 782 209 790 197 790 c 0
 183 790 159 780 159 743 c 2
 159 136 l 2
 159 72 181 30 206 30 c 0
 217 30 223 32 229 40 c 0
 249 66 263 116 267 155 c 1
 233 160 214 190 214 227 c 0
 214 263 233 294 267 299 c 1
 263 421 234 520 211 562 c 1
 215 570 l 1
 231 566 249 563 277 563 c 0
 305 563 323 566 339 570 c 1
 343 562 l 1
 320 520 290 421 286 299 c 1
 320 294 340 263 340 227 c 0
522 942 m 1
 486 942 468 931 447 913 c 0
 425 894 408 869 400 846 c 1
 383 846 l 1
 383 942 l 1
 327 942 l 1
 327 845 l 1
 227 845 l 1
 227 942 l 1
 171 942 l 1
 171 846 l 1
 154 846 l 1
 146 869 129 894 107 913 c 0
 86 931 68 942 32 942 c 1
 32 962 l 1
 522 962 l 1
 522 942 l 1
EndSplineSet
EndChar

StartChar: uni047F
Encoding: 1151 1151 173
Width: 554
Flags: HW
LayerCount: 2
Fore
SplineSet
340 227 m 0
 340 190 321 160 287 155 c 1
 290 116 304 66 325 40 c 0
 331 32 337 30 348 30 c 0
 373 30 395 72 395 136 c 2
 395 743 l 2
 395 780 371 790 357 790 c 0
 345 790 320 782 312 758 c 1
 316 760 321 761 326 761 c 0
 350 761 370 735 370 711 c 0
 370 687 358 655 326 655 c 0
 295 655 283 687 283 711 c 2
 283 714 l 2
 284 769 310 808 362 808 c 0
 431 808 465 757 478 712 c 0
 498 644 504 498 504 410 c 0
 504 313 493 160 475 88 c 0
 463 39 425 -8 379 -8 c 0
 349 -8 331 3 311 25 c 0
 295 42 284 70 277 100 c 1
 270 70 258 42 243 25 c 0
 223 3 205 -8 175 -8 c 0
 129 -8 91 39 79 88 c 0
 61 160 50 313 50 410 c 0
 50 498 56 644 76 712 c 0
 89 757 123 808 192 808 c 0
 245 808 271 768 271 711 c 0
 271 687 259 655 228 655 c 0
 196 655 184 687 184 711 c 0
 184 735 204 761 228 761 c 0
 232 761 237 760 241 758 c 1
 233 782 209 790 197 790 c 0
 183 790 159 780 159 743 c 2
 159 136 l 2
 159 72 181 30 206 30 c 0
 217 30 223 32 229 40 c 0
 249 66 263 116 267 155 c 1
 233 160 214 190 214 227 c 0
 214 263 233 294 267 299 c 1
 263 421 234 520 211 562 c 1
 215 570 l 1
 231 566 249 563 277 563 c 0
 305 563 323 566 339 570 c 1
 343 562 l 1
 320 520 290 421 286 299 c 1
 320 294 340 263 340 227 c 0
522 942 m 1
 486 942 468 931 447 913 c 0
 425 894 408 869 400 846 c 1
 383 846 l 1
 383 942 l 1
 327 942 l 1
 327 845 l 1
 227 845 l 1
 227 942 l 1
 171 942 l 1
 171 846 l 1
 154 846 l 1
 146 869 129 894 107 913 c 0
 86 931 68 942 32 942 c 1
 32 962 l 1
 522 962 l 1
 522 942 l 1
EndSplineSet
EndChar

StartChar: uni0480
Encoding: 1152 1152 174
Width: 373
Flags: HW
LayerCount: 2
Fore
SplineSet
345 254 m 0
 345 163 268 87 175 87 c 0
 82 87 8 163 8 254 c 0
 8 349 82 424 175 424 c 0
 268 424 345 349 345 254 c 0
93 150 m 1
 116 131 145 120 175 120 c 0
 250 120 311 181 311 254 c 0
 311 287 300 314 282 338 c 1
 93 150 l 1
257 361 m 1
 236 379 207 390 175 390 c 0
 102 390 41 329 41 254 c 0
 41 224 52 197 68 173 c 1
 257 361 l 1
EndSplineSet
EndChar

StartChar: uni0481
Encoding: 1153 1153 175
Width: 373
Flags: HW
LayerCount: 2
Fore
SplineSet
345 254 m 0
 345 163 268 87 175 87 c 0
 82 87 8 163 8 254 c 0
 8 349 82 424 175 424 c 0
 268 424 345 349 345 254 c 0
93 150 m 1
 116 131 145 120 175 120 c 0
 250 120 311 181 311 254 c 0
 311 287 300 314 282 338 c 1
 93 150 l 1
257 361 m 1
 236 379 207 390 175 390 c 0
 102 390 41 329 41 254 c 0
 41 224 52 197 68 173 c 1
 257 361 l 1
EndSplineSet
EndChar

StartChar: uni0482
Encoding: 1154 1154 176
Width: 218
Flags: HW
LayerCount: 2
Fore
SplineSet
203 135 m 1
 184 100 l 1
 137 124 l 1
 133 114 127 101 123 90 c 1
 174 67 l 1
 151 32 l 1
 138 38 125 43 107 53 c 1
 93 27 85 6 81 -8 c 1
 40 6 l 1
 46 19 55 43 69 73 c 1
 48 82 28 92 15 98 c 1
 38 134 l 1
 50 129 67 118 86 111 c 1
 90 120 95 131 100 143 c 1
 79 154 59 163 48 170 c 1
 67 206 l 1
 79 199 98 190 116 181 c 1
 131 208 141 229 145 245 c 1
 185 229 l 1
 179 214 168 193 154 161 c 1
 175 152 189 144 203 135 c 1
EndSplineSet
EndChar

StartChar: uni0483
Encoding: 1155 1155 177
Width: 0
Flags: HW
LayerCount: 2
Fore
SplineSet
-107 791 m 1
 -37 791 l 1
 -37 723 l 1
 -15 723 l 1
 -15 703 l 1
 -267 703 l 1
 -267 635 l 1
 -337 635 l 1
 -337 703 l 1
 -367 703 l 1
 -367 723 l 1
 -107 723 l 1
 -107 791 l 1
EndSplineSet
EndChar

StartChar: uni0484
Encoding: 1156 1156 178
Width: 373
Flags: HW
LayerCount: 2
Fore
SplineSet
345 254 m 0
 345 163 268 87 175 87 c 0
 82 87 8 163 8 254 c 0
 8 349 82 424 175 424 c 0
 268 424 345 349 345 254 c 0
93 150 m 1
 116 131 145 120 175 120 c 0
 250 120 311 181 311 254 c 0
 311 287 300 314 282 338 c 1
 93 150 l 1
257 361 m 1
 236 379 207 390 175 390 c 0
 102 390 41 329 41 254 c 0
 41 224 52 197 68 173 c 1
 257 361 l 1
EndSplineSet
EndChar

StartChar: uni0485
Encoding: 1157 1157 179
Width: 373
Flags: HW
LayerCount: 2
Fore
SplineSet
345 254 m 0
 345 163 268 87 175 87 c 0
 82 87 8 163 8 254 c 0
 8 349 82 424 175 424 c 0
 268 424 345 349 345 254 c 0
93 150 m 1
 116 131 145 120 175 120 c 0
 250 120 311 181 311 254 c 0
 311 287 300 314 282 338 c 1
 93 150 l 1
257 361 m 1
 236 379 207 390 175 390 c 0
 102 390 41 329 41 254 c 0
 41 224 52 197 68 173 c 1
 257 361 l 1
EndSplineSet
EndChar

StartChar: uni0486
Encoding: 1158 1158 180
Width: 0
Flags: HW
LayerCount: 2
Fore
SplineSet
-67 623 m 1
 -56 635 -54 650 -54 668 c 0
 -54 693 -71 716 -96 716 c 0
 -122 716 -141 696 -141 671 c 0
 -141 650 -132 630 -127 621 c 1
 -142 612 l 1
 -163 626 -183 656 -183 693 c 0
 -183 734 -151 778 -99 778 c 0
 -38 778 -12 736 -12 692 c 0
 -12 654 -32 632 -54 614 c 1
 -67 623 l 1
EndSplineSet
EndChar

StartChar: uni0487
Encoding: 1159 1159 181
Width: 0
Flags: HW
LayerCount: 2
Fore
SplineSet
-357 664 m 1
 -359 668 -363 677 -363 686 c 0
 -363 699 -355 723 -346 738 c 0
 -340 748 -335 753 -325 758 c 0
 -273 783 -234 795 -188 805 c 0
 -181 806 -172 806 -167 802 c 0
 -114 761 -6 684 26 663 c 0
 29 657 29 651 28 645 c 1
 -43 645 l 1
 -85 669 -154 728 -203 760 c 0
 -215 764 -231 765 -248 765 c 0
 -265 765 -287 756 -296 745 c 0
 -300 736 -300 727 -300 717 c 0
 -300 701 -294 688 -294 677 c 2
 -294 671 l 1
 -357 664 l 1
EndSplineSet
EndChar

StartChar: uni0488
Encoding: 1160 1160 182
Width: 373
Flags: HW
LayerCount: 2
Fore
SplineSet
345 254 m 0
 345 163 268 87 175 87 c 0
 82 87 8 163 8 254 c 0
 8 349 82 424 175 424 c 0
 268 424 345 349 345 254 c 0
93 150 m 1
 116 131 145 120 175 120 c 0
 250 120 311 181 311 254 c 0
 311 287 300 314 282 338 c 1
 93 150 l 1
257 361 m 1
 236 379 207 390 175 390 c 0
 102 390 41 329 41 254 c 0
 41 224 52 197 68 173 c 1
 257 361 l 1
EndSplineSet
EndChar

StartChar: uni0489
Encoding: 1161 1161 183
Width: 373
Flags: HW
LayerCount: 2
Fore
SplineSet
345 254 m 0
 345 163 268 87 175 87 c 0
 82 87 8 163 8 254 c 0
 8 349 82 424 175 424 c 0
 268 424 345 349 345 254 c 0
93 150 m 1
 116 131 145 120 175 120 c 0
 250 120 311 181 311 254 c 0
 311 287 300 314 282 338 c 1
 93 150 l 1
257 361 m 1
 236 379 207 390 175 390 c 0
 102 390 41 329 41 254 c 0
 41 224 52 197 68 173 c 1
 257 361 l 1
EndSplineSet
EndChar

StartChar: uni0423
Encoding: 1059 1059 184
Width: 350
Flags: HW
LayerCount: 2
Fore
SplineSet
326 800 m 1
 319 784 312 769 308 749 c 0
 304 729 301 700 300 687 c 2
 300 678 l 1
 263 678 l 2
 242 678 220 669 217 621 c 2
 198 328 l 1
 196 94 l 2
 195 55 213 22 255 18 c 1
 255 0 l 1
 93 0 l 1
 93 18 l 1
 137 21 175 50 176 95 c 2
 177 291 l 1
 83 291 l 1
 27 800 l 1
 132 800 l 1
 179 368 l 1
 196 627 l 2
 204 754 227 808 280 808 c 2
 326 808 l 1
 326 800 l 1
EndSplineSet
EndChar

StartChar: uni0443
Encoding: 1091 1091 185
Width: 350
Flags: HW
LayerCount: 2
Fore
SplineSet
326 800 m 1
 319 784 312 769 308 749 c 0
 304 729 301 700 300 687 c 2
 300 678 l 1
 263 678 l 2
 242 678 220 669 217 621 c 2
 198 328 l 1
 196 94 l 2
 195 55 213 22 255 18 c 1
 255 0 l 1
 93 0 l 1
 93 18 l 1
 137 21 175 50 176 95 c 2
 177 291 l 1
 83 291 l 1
 27 800 l 1
 132 800 l 1
 179 368 l 1
 196 627 l 2
 204 754 227 808 280 808 c 2
 326 808 l 1
 326 800 l 1
EndSplineSet
EndChar

StartChar: uni0001
Encoding: 1 1 186
Width: 360
Flags: HW
LayerCount: 2
Fore
SplineSet
310 0 m 1
 50 0 l 1
 50 800 l 1
 310 800 l 1
 310 0 l 1
190 401 m 1
 290 40 l 1
 290 762 l 1
 190 401 l 1
169 401 m 1
 70 762 l 1
 70 40 l 1
 169 401 l 1
180 362 m 1
 86 20 l 1
 274 20 l 1
 180 362 l 1
86 780 m 1
 180 440 l 1
 273 780 l 1
 86 780 l 1
EndSplineSet
EndChar

StartChar: uni0002
Encoding: 2 2 187
Width: 360
Flags: HW
LayerCount: 2
Fore
SplineSet
310 0 m 1
 50 0 l 1
 50 800 l 1
 310 800 l 1
 310 0 l 1
190 401 m 1
 290 40 l 1
 290 762 l 1
 190 401 l 1
169 401 m 1
 70 762 l 1
 70 40 l 1
 169 401 l 1
180 362 m 1
 86 20 l 1
 274 20 l 1
 180 362 l 1
86 780 m 1
 180 440 l 1
 273 780 l 1
 86 780 l 1
EndSplineSet
EndChar

StartChar: uni0003
Encoding: 3 3 188
Width: 360
Flags: HW
LayerCount: 2
Fore
SplineSet
310 0 m 1
 50 0 l 1
 50 800 l 1
 310 800 l 1
 310 0 l 1
190 401 m 1
 290 40 l 1
 290 762 l 1
 190 401 l 1
169 401 m 1
 70 762 l 1
 70 40 l 1
 169 401 l 1
180 362 m 1
 86 20 l 1
 274 20 l 1
 180 362 l 1
86 780 m 1
 180 440 l 1
 273 780 l 1
 86 780 l 1
EndSplineSet
EndChar

StartChar: uni0004
Encoding: 4 4 189
Width: 360
Flags: HW
LayerCount: 2
Fore
SplineSet
310 0 m 1
 50 0 l 1
 50 800 l 1
 310 800 l 1
 310 0 l 1
190 401 m 1
 290 40 l 1
 290 762 l 1
 190 401 l 1
169 401 m 1
 70 762 l 1
 70 40 l 1
 169 401 l 1
180 362 m 1
 86 20 l 1
 274 20 l 1
 180 362 l 1
86 780 m 1
 180 440 l 1
 273 780 l 1
 86 780 l 1
EndSplineSet
EndChar

StartChar: uni0005
Encoding: 5 5 190
Width: 360
Flags: HW
LayerCount: 2
Fore
SplineSet
310 0 m 1
 50 0 l 1
 50 800 l 1
 310 800 l 1
 310 0 l 1
190 401 m 1
 290 40 l 1
 290 762 l 1
 190 401 l 1
169 401 m 1
 70 762 l 1
 70 40 l 1
 169 401 l 1
180 362 m 1
 86 20 l 1
 274 20 l 1
 180 362 l 1
86 780 m 1
 180 440 l 1
 273 780 l 1
 86 780 l 1
EndSplineSet
EndChar

StartChar: uni0006
Encoding: 6 6 191
Width: 360
Flags: HW
LayerCount: 2
Fore
SplineSet
310 0 m 1
 50 0 l 1
 50 800 l 1
 310 800 l 1
 310 0 l 1
190 401 m 1
 290 40 l 1
 290 762 l 1
 190 401 l 1
169 401 m 1
 70 762 l 1
 70 40 l 1
 169 401 l 1
180 362 m 1
 86 20 l 1
 274 20 l 1
 180 362 l 1
86 780 m 1
 180 440 l 1
 273 780 l 1
 86 780 l 1
EndSplineSet
EndChar

StartChar: uni0007
Encoding: 7 7 192
Width: 360
Flags: HW
LayerCount: 2
Fore
SplineSet
310 0 m 1
 50 0 l 1
 50 800 l 1
 310 800 l 1
 310 0 l 1
190 401 m 1
 290 40 l 1
 290 762 l 1
 190 401 l 1
169 401 m 1
 70 762 l 1
 70 40 l 1
 169 401 l 1
180 362 m 1
 86 20 l 1
 274 20 l 1
 180 362 l 1
86 780 m 1
 180 440 l 1
 273 780 l 1
 86 780 l 1
EndSplineSet
EndChar

StartChar: uni000B
Encoding: 11 11 196
Width: 360
Flags: HW
LayerCount: 2
Fore
SplineSet
310 0 m 1
 50 0 l 1
 50 800 l 1
 310 800 l 1
 310 0 l 1
190 401 m 1
 290 40 l 1
 290 762 l 1
 190 401 l 1
169 401 m 1
 70 762 l 1
 70 40 l 1
 169 401 l 1
180 362 m 1
 86 20 l 1
 274 20 l 1
 180 362 l 1
86 780 m 1
 180 440 l 1
 273 780 l 1
 86 780 l 1
EndSplineSet
EndChar

StartChar: uni000C
Encoding: 12 12 197
Width: 360
Flags: HW
LayerCount: 2
Fore
SplineSet
310 0 m 1
 50 0 l 1
 50 800 l 1
 310 800 l 1
 310 0 l 1
190 401 m 1
 290 40 l 1
 290 762 l 1
 190 401 l 1
169 401 m 1
 70 762 l 1
 70 40 l 1
 169 401 l 1
180 362 m 1
 86 20 l 1
 274 20 l 1
 180 362 l 1
86 780 m 1
 180 440 l 1
 273 780 l 1
 86 780 l 1
EndSplineSet
EndChar

StartChar: uni000E
Encoding: 14 14 199
Width: 360
Flags: HW
LayerCount: 2
Fore
SplineSet
310 0 m 1
 50 0 l 1
 50 800 l 1
 310 800 l 1
 310 0 l 1
190 401 m 1
 290 40 l 1
 290 762 l 1
 190 401 l 1
169 401 m 1
 70 762 l 1
 70 40 l 1
 169 401 l 1
180 362 m 1
 86 20 l 1
 274 20 l 1
 180 362 l 1
86 780 m 1
 180 440 l 1
 273 780 l 1
 86 780 l 1
EndSplineSet
EndChar

StartChar: uni000F
Encoding: 15 15 200
Width: 360
Flags: HW
LayerCount: 2
Fore
SplineSet
310 0 m 1
 50 0 l 1
 50 800 l 1
 310 800 l 1
 310 0 l 1
190 401 m 1
 290 40 l 1
 290 762 l 1
 190 401 l 1
169 401 m 1
 70 762 l 1
 70 40 l 1
 169 401 l 1
180 362 m 1
 86 20 l 1
 274 20 l 1
 180 362 l 1
86 780 m 1
 180 440 l 1
 273 780 l 1
 86 780 l 1
EndSplineSet
EndChar

StartChar: uni0010
Encoding: 16 16 201
Width: 360
Flags: HW
LayerCount: 2
Fore
SplineSet
310 0 m 1
 50 0 l 1
 50 800 l 1
 310 800 l 1
 310 0 l 1
190 401 m 1
 290 40 l 1
 290 762 l 1
 190 401 l 1
169 401 m 1
 70 762 l 1
 70 40 l 1
 169 401 l 1
180 362 m 1
 86 20 l 1
 274 20 l 1
 180 362 l 1
86 780 m 1
 180 440 l 1
 273 780 l 1
 86 780 l 1
EndSplineSet
EndChar

StartChar: uni0011
Encoding: 17 17 202
Width: 360
Flags: HW
LayerCount: 2
Fore
SplineSet
310 0 m 1
 50 0 l 1
 50 800 l 1
 310 800 l 1
 310 0 l 1
190 401 m 1
 290 40 l 1
 290 762 l 1
 190 401 l 1
169 401 m 1
 70 762 l 1
 70 40 l 1
 169 401 l 1
180 362 m 1
 86 20 l 1
 274 20 l 1
 180 362 l 1
86 780 m 1
 180 440 l 1
 273 780 l 1
 86 780 l 1
EndSplineSet
EndChar

StartChar: uni0012
Encoding: 18 18 203
Width: 360
Flags: HW
LayerCount: 2
Fore
SplineSet
310 0 m 1
 50 0 l 1
 50 800 l 1
 310 800 l 1
 310 0 l 1
190 401 m 1
 290 40 l 1
 290 762 l 1
 190 401 l 1
169 401 m 1
 70 762 l 1
 70 40 l 1
 169 401 l 1
180 362 m 1
 86 20 l 1
 274 20 l 1
 180 362 l 1
86 780 m 1
 180 440 l 1
 273 780 l 1
 86 780 l 1
EndSplineSet
EndChar

StartChar: uni0013
Encoding: 19 19 204
Width: 360
Flags: HW
LayerCount: 2
Fore
SplineSet
310 0 m 1
 50 0 l 1
 50 800 l 1
 310 800 l 1
 310 0 l 1
190 401 m 1
 290 40 l 1
 290 762 l 1
 190 401 l 1
169 401 m 1
 70 762 l 1
 70 40 l 1
 169 401 l 1
180 362 m 1
 86 20 l 1
 274 20 l 1
 180 362 l 1
86 780 m 1
 180 440 l 1
 273 780 l 1
 86 780 l 1
EndSplineSet
EndChar

StartChar: uni0014
Encoding: 20 20 205
Width: 360
Flags: HW
LayerCount: 2
Fore
SplineSet
310 0 m 1
 50 0 l 1
 50 800 l 1
 310 800 l 1
 310 0 l 1
190 401 m 1
 290 40 l 1
 290 762 l 1
 190 401 l 1
169 401 m 1
 70 762 l 1
 70 40 l 1
 169 401 l 1
180 362 m 1
 86 20 l 1
 274 20 l 1
 180 362 l 1
86 780 m 1
 180 440 l 1
 273 780 l 1
 86 780 l 1
EndSplineSet
EndChar

StartChar: uni0015
Encoding: 21 21 206
Width: 360
Flags: HW
LayerCount: 2
Fore
SplineSet
310 0 m 1
 50 0 l 1
 50 800 l 1
 310 800 l 1
 310 0 l 1
190 401 m 1
 290 40 l 1
 290 762 l 1
 190 401 l 1
169 401 m 1
 70 762 l 1
 70 40 l 1
 169 401 l 1
180 362 m 1
 86 20 l 1
 274 20 l 1
 180 362 l 1
86 780 m 1
 180 440 l 1
 273 780 l 1
 86 780 l 1
EndSplineSet
EndChar

StartChar: uni0016
Encoding: 22 22 207
Width: 360
Flags: HW
LayerCount: 2
Fore
SplineSet
310 0 m 1
 50 0 l 1
 50 800 l 1
 310 800 l 1
 310 0 l 1
190 401 m 1
 290 40 l 1
 290 762 l 1
 190 401 l 1
169 401 m 1
 70 762 l 1
 70 40 l 1
 169 401 l 1
180 362 m 1
 86 20 l 1
 274 20 l 1
 180 362 l 1
86 780 m 1
 180 440 l 1
 273 780 l 1
 86 780 l 1
EndSplineSet
EndChar

StartChar: uni0017
Encoding: 23 23 208
Width: 360
Flags: HW
LayerCount: 2
Fore
SplineSet
310 0 m 1
 50 0 l 1
 50 800 l 1
 310 800 l 1
 310 0 l 1
190 401 m 1
 290 40 l 1
 290 762 l 1
 190 401 l 1
169 401 m 1
 70 762 l 1
 70 40 l 1
 169 401 l 1
180 362 m 1
 86 20 l 1
 274 20 l 1
 180 362 l 1
86 780 m 1
 180 440 l 1
 273 780 l 1
 86 780 l 1
EndSplineSet
EndChar

StartChar: uni0018
Encoding: 24 24 209
Width: 360
Flags: HW
LayerCount: 2
Fore
SplineSet
310 0 m 1
 50 0 l 1
 50 800 l 1
 310 800 l 1
 310 0 l 1
190 401 m 1
 290 40 l 1
 290 762 l 1
 190 401 l 1
169 401 m 1
 70 762 l 1
 70 40 l 1
 169 401 l 1
180 362 m 1
 86 20 l 1
 274 20 l 1
 180 362 l 1
86 780 m 1
 180 440 l 1
 273 780 l 1
 86 780 l 1
EndSplineSet
EndChar

StartChar: uni0019
Encoding: 25 25 210
Width: 360
Flags: HW
LayerCount: 2
Fore
SplineSet
310 0 m 1
 50 0 l 1
 50 800 l 1
 310 800 l 1
 310 0 l 1
190 401 m 1
 290 40 l 1
 290 762 l 1
 190 401 l 1
169 401 m 1
 70 762 l 1
 70 40 l 1
 169 401 l 1
180 362 m 1
 86 20 l 1
 274 20 l 1
 180 362 l 1
86 780 m 1
 180 440 l 1
 273 780 l 1
 86 780 l 1
EndSplineSet
EndChar

StartChar: uni001A
Encoding: 26 26 211
Width: 360
Flags: HW
LayerCount: 2
Fore
SplineSet
310 0 m 1
 50 0 l 1
 50 800 l 1
 310 800 l 1
 310 0 l 1
190 401 m 1
 290 40 l 1
 290 762 l 1
 190 401 l 1
169 401 m 1
 70 762 l 1
 70 40 l 1
 169 401 l 1
180 362 m 1
 86 20 l 1
 274 20 l 1
 180 362 l 1
86 780 m 1
 180 440 l 1
 273 780 l 1
 86 780 l 1
EndSplineSet
EndChar

StartChar: uni001B
Encoding: 27 27 212
Width: 360
Flags: HW
LayerCount: 2
Fore
SplineSet
310 0 m 1
 50 0 l 1
 50 800 l 1
 310 800 l 1
 310 0 l 1
190 401 m 1
 290 40 l 1
 290 762 l 1
 190 401 l 1
169 401 m 1
 70 762 l 1
 70 40 l 1
 169 401 l 1
180 362 m 1
 86 20 l 1
 274 20 l 1
 180 362 l 1
86 780 m 1
 180 440 l 1
 273 780 l 1
 86 780 l 1
EndSplineSet
EndChar

StartChar: uni001C
Encoding: 28 28 213
Width: 360
Flags: HW
LayerCount: 2
Fore
SplineSet
310 0 m 1
 50 0 l 1
 50 800 l 1
 310 800 l 1
 310 0 l 1
190 401 m 1
 290 40 l 1
 290 762 l 1
 190 401 l 1
169 401 m 1
 70 762 l 1
 70 40 l 1
 169 401 l 1
180 362 m 1
 86 20 l 1
 274 20 l 1
 180 362 l 1
86 780 m 1
 180 440 l 1
 273 780 l 1
 86 780 l 1
EndSplineSet
EndChar

StartChar: uni001E
Encoding: 30 30 215
Width: 360
Flags: HW
LayerCount: 2
Fore
SplineSet
310 0 m 1
 50 0 l 1
 50 800 l 1
 310 800 l 1
 310 0 l 1
190 401 m 1
 290 40 l 1
 290 762 l 1
 190 401 l 1
169 401 m 1
 70 762 l 1
 70 40 l 1
 169 401 l 1
180 362 m 1
 86 20 l 1
 274 20 l 1
 180 362 l 1
86 780 m 1
 180 440 l 1
 273 780 l 1
 86 780 l 1
EndSplineSet
EndChar

StartChar: uni001F
Encoding: 31 31 216
Width: 360
Flags: HW
LayerCount: 2
Fore
SplineSet
310 0 m 1
 50 0 l 1
 50 800 l 1
 310 800 l 1
 310 0 l 1
190 401 m 1
 290 40 l 1
 290 762 l 1
 190 401 l 1
169 401 m 1
 70 762 l 1
 70 40 l 1
 169 401 l 1
180 362 m 1
 86 20 l 1
 274 20 l 1
 180 362 l 1
86 780 m 1
 180 440 l 1
 273 780 l 1
 86 780 l 1
EndSplineSet
EndChar
